<svg id="Layer_1" data-name="Layer 1" xmlns="http://www.w3.org/2000/svg" xmlns:xlink="http://www.w3.org/1999/xlink" viewBox="0 0 33 28"><defs><style>.cls-1{fill:none;clip-rule:evenodd;}.cls-2{clip-path:url(#clip-path);}.cls-3{fill:#3e82f1;}.cls-4{clip-path:url(#clip-path-2);}.cls-5{fill:#32a753;}.cls-6{clip-path:url(#clip-path-3);}.cls-7{fill:#f9bb00;}.cls-8{clip-path:url(#clip-path-4);}.cls-9{fill:#e74133;}</style><clipPath id="clip-path"><path class="cls-1" d="M28.94,14.3a14.3,14.3,0,0,0-.24-2.66H16.33v5H23.4a6,6,0,0,1-2.62,3.92v3.26H25a12.59,12.59,0,0,0,3.92-9.55Zm0,0"/></clipPath><clipPath id="clip-path-2"><path class="cls-1" d="M16.33,27A12.58,12.58,0,0,0,25,23.85l-4.24-3.26a8,8,0,0,1-4.45,1.24A7.83,7.83,0,0,1,9,16.47H4.6v3.37A13.13,13.13,0,0,0,16.33,27Zm0,0"/></clipPath><clipPath id="clip-path-3"><path class="cls-1" d="M9,16.47a7.65,7.65,0,0,1,0-4.94V8.16H4.6a12.88,12.88,0,0,0,0,11.68L9,16.47Zm0,0"/></clipPath><clipPath id="clip-path-4"><path class="cls-1" d="M16.33,6.17a7.16,7.16,0,0,1,5,1.94l3.77-3.72A12.68,12.68,0,0,0,16.33,1,13.13,13.13,0,0,0,4.6,8.16L9,11.53a7.83,7.83,0,0,1,7.35-5.36Zm0,0"/></clipPath></defs><title>Artboard 21</title><g class="cls-2"><rect id="_Path_" data-name="&lt;Path&gt;" class="cls-3" x="9.04" y="4.41" width="27.2" height="26.66"/></g><g class="cls-4"><rect id="_Path_2" data-name="&lt;Path&gt;" class="cls-5" x="-2.7" y="9.25" width="35.02" height="24.97"/></g><g class="cls-6"><rect id="_Path_3" data-name="&lt;Path&gt;" class="cls-7" x="-4.1" y="0.94" width="20.38" height="26.12"/></g><g class="cls-8"><rect id="_Path_4" data-name="&lt;Path&gt;" class="cls-9" x="-2.7" y="-6.22" width="35.11" height="24.97"/></g></svg>