<svg id="Layer_1" data-name="Layer 1" xmlns="http://www.w3.org/2000/svg" xmlns:xlink="http://www.w3.org/1999/xlink" viewBox="0 0 33 24"><defs><style>.cls-1{fill:none;clip-rule:evenodd;}.cls-2{clip-path:url(#clip-path);}.cls-3{fill:#3e82f1;}.cls-4{clip-path:url(#clip-path-2);}.cls-5{fill:#32a753;}.cls-6{clip-path:url(#clip-path-3);}.cls-7{fill:#f9bb00;}.cls-8{clip-path:url(#clip-path-4);}.cls-9{fill:#e74133;}</style><clipPath id="clip-path"><path class="cls-1" d="M28,12.27a13.87,13.87,0,0,0-.22-2.45H16.31v4.64h6.53a5.52,5.52,0,0,1-2.42,3.62v3h3.92A11.64,11.64,0,0,0,28,12.27Zm0,0"/></clipPath><clipPath id="clip-path-2"><path class="cls-1" d="M16.31,24a11.62,11.62,0,0,0,8-2.91l-3.92-3a7.37,7.37,0,0,1-4.11,1.15,7.21,7.21,0,0,1-6.78-5h-4v3.11A12.12,12.12,0,0,0,16.31,24Zm0,0"/></clipPath><clipPath id="clip-path-3"><path class="cls-1" d="M9.53,14.28a7,7,0,0,1,0-4.56V6.61h-4a11.91,11.91,0,0,0,0,10.78l4-3.11Zm0,0"/></clipPath><clipPath id="clip-path-4"><path class="cls-1" d="M16.31,4.77A6.61,6.61,0,0,1,21,6.57l3.47-3.44A11.7,11.7,0,0,0,16.31,0,12.12,12.12,0,0,0,5.48,6.61l4,3.11a7.21,7.21,0,0,1,6.78-5Zm0,0"/></clipPath></defs><title>Artboard 21</title><g class="cls-2"><rect id="_Path_" data-name="&lt;Path&gt;" class="cls-3" x="9.58" y="3.15" width="25.11" height="24.61"/></g><g class="cls-4"><rect id="_Path_2" data-name="&lt;Path&gt;" class="cls-5" x="-1.26" y="7.61" width="32.33" height="23.05"/></g><g class="cls-6"><rect id="_Path_3" data-name="&lt;Path&gt;" class="cls-7" x="-2.54" y="-0.06" width="18.81" height="24.11"/></g><g class="cls-8"><rect id="_Path_4" data-name="&lt;Path&gt;" class="cls-9" x="-1.26" y="-6.67" width="32.41" height="23.05"/></g></svg>