<svg id="Layer_1" data-name="Layer 1" xmlns="http://www.w3.org/2000/svg" xmlns:xlink="http://www.w3.org/1999/xlink" viewBox="0 0 33 28"><defs><style>.cls-1{fill:none;clip-rule:evenodd;}.cls-2{clip-path:url(#clip-path);}.cls-3{fill:#3e82f1;}.cls-4{clip-path:url(#clip-path-2);}.cls-5{fill:#32a753;}.cls-6{fill:#56acee;}</style><clipPath id="clip-path"><path class="cls-1" d="M28.94-15.7a14.3,14.3,0,0,0-.24-2.66H16.33v5H23.4a6,6,0,0,1-2.62,3.92v3.26H25a12.59,12.59,0,0,0,3.92-9.55Zm0,0"/></clipPath><clipPath id="clip-path-2"><path class="cls-1" d="M16.33-3A12.58,12.58,0,0,0,25-6.15L20.78-9.41a8,8,0,0,1-4.45,1.24A7.83,7.83,0,0,1,9-13.53H4.6v3.37A13.13,13.13,0,0,0,16.33-3Zm0,0"/></clipPath></defs><title>Artboard 25</title><g class="cls-2"><rect id="_Path_" data-name="&lt;Path&gt;" class="cls-3" x="9.04" y="-25.59" width="27.2" height="26.66"/></g><g class="cls-4"><rect id="_Path_2" data-name="&lt;Path&gt;" class="cls-5" x="-2.7" y="-20.75" width="35.02" height="24.97"/></g><path id="_Path_3" data-name="&lt;Path&gt;" class="cls-6" d="M32,4.55a.13.13,0,0,0-.17,0A12,12,0,0,1,29,5.36a6.28,6.28,0,0,0,2.21-3.1.14.14,0,0,0-.05-.16.14.14,0,0,0-.17,0,12.18,12.18,0,0,1-3.77,1.45A6.29,6.29,0,0,0,16.37,7.9a6.43,6.43,0,0,0,.12,1.24A17.32,17.32,0,0,1,4.15,2.79a.16.16,0,0,0-.25,0A6.37,6.37,0,0,0,3.05,6a6.29,6.29,0,0,0,2.37,4.92,5.92,5.92,0,0,1-2.2-.71.12.12,0,0,0-.14,0,.16.16,0,0,0-.08.13v.08a6.31,6.31,0,0,0,4.42,6,6.12,6.12,0,0,1-2.09,0,.15.15,0,0,0-.14.05.12.12,0,0,0,0,.14,6.3,6.3,0,0,0,5.45,4.35,12.1,12.1,0,0,1-7.2,2.34A11.48,11.48,0,0,1,2,23.16a.15.15,0,0,0-.1.27,17.54,17.54,0,0,0,9.48,2.78A17.44,17.44,0,0,0,29,8.61c0-.24,0-.48,0-.72a12.47,12.47,0,0,0,3-3.16A.14.14,0,0,0,32,4.55Z"/></svg>