<svg id="Layer_1" data-name="Layer 1" xmlns="http://www.w3.org/2000/svg" viewBox="0 0 24 24"><defs><style>.cls-1{fill:none;stroke:#414042;stroke-miterlimit:10;}</style></defs><title>Artboard 14</title><path id="_Path_" data-name="&lt;Path&gt;" class="cls-1" d="M10,23.26a11.93,11.93,0,0,1-7.42-5.48A11.34,11.34,0,0,1,3.36,5.56a10.29,10.29,0,0,1,8.43-4.45A11.19,11.19,0,0,1,20.68,5.4,11.41,11.41,0,0,1,22,17.07a10.54,10.54,0,0,1-8.16,6.13V15.1H16.2V12.22H13.31v-2a1.94,1.94,0,0,1,1.41-1.88,4.93,4.93,0,0,1,2.2,0V5.49H14.7A4.93,4.93,0,0,0,12.44,6a4.09,4.09,0,0,0-2.25,3.6v2.61H7.54V15.1h2.53Z"/></svg>