<?xml version="1.0" standalone="no"?>
<!DOCTYPE svg PUBLIC "-//W3C//DTD SVG 20010904//EN"
 "http://www.w3.org/TR/2001/REC-SVG-20010904/DTD/svg10.dtd">
<svg version="1.0" xmlns="http://www.w3.org/2000/svg"
 width="948.000000pt" height="587.000000pt" viewBox="0 0 948.000000 587.000000"
 preserveAspectRatio="xMidYMid meet">

<g transform="translate(0.000000,587.000000) scale(0.100000,-0.100000)"
fill="#000000" stroke="none">
<path d="M0 2935 l0 -2935 93 0 c121 0 120 -1 102 163 -5 39 -2 49 12 55 12 5
19 20 20 47 2 22 7 41 13 43 5 2 10 14 10 26 0 12 5 27 11 33 5 5 10 29 11 52
0 27 6 45 14 48 8 3 14 16 14 29 0 13 5 24 10 24 6 0 10 12 10 28 1 15 7 45
15 67 12 32 12 46 2 73 -11 32 -10 35 18 59 17 13 39 32 50 41 45 39 58 46
122 67 65 22 105 23 102 1 -5 -39 1 -46 39 -46 26 0 41 -6 50 -20 7 -11 23
-20 36 -20 13 0 26 -5 28 -10 2 -6 20 -12 41 -14 21 -2 40 -6 44 -10 3 -3 17
-6 29 -6 13 0 25 -4 28 -9 3 -5 15 -7 26 -4 12 3 22 -1 26 -10 3 -9 12 -13 19
-11 7 3 16 1 20 -5 3 -6 17 -8 31 -5 17 4 26 1 30 -10 3 -9 12 -16 18 -16 14
0 6 78 -12 120 -6 14 -45 130 -86 257 -46 144 -85 246 -100 266 -14 19 -30 47
-35 63 -44 147 -43 144 -77 144 -18 0 -36 -5 -39 -10 -8 -14 -72 -40 -97 -40
-10 0 -37 8 -58 19 -39 19 -39 19 -86 -5 -55 -28 -96 -31 -115 -8 -11 14 -11
18 4 29 9 7 17 17 17 22 0 15 40 39 102 61 30 11 74 33 98 51 23 17 46 31 50
31 11 0 126 78 139 94 7 9 12 50 12 104 0 96 8 116 49 125 35 9 51 -4 80 -65
27 -57 23 -55 105 -39 48 10 158 47 197 67 16 8 34 26 40 38 5 13 21 29 34 35
13 6 35 16 49 23 19 9 28 9 37 0 24 -24 -37 -111 -89 -126 -17 -6 -23 -17 -28
-59 -8 -61 -20 -78 -97 -135 -68 -50 -70 -61 -27 -152 17 -36 38 -81 46 -100
9 -19 24 -51 34 -71 10 -19 20 -56 22 -82 2 -25 9 -52 15 -60 6 -7 14 -35 17
-62 7 -51 118 -284 139 -291 9 -3 54 -10 79 -13 4 -1 7 -14 7 -30 l0 -30 48
20 49 20 -13 62 c-8 34 -28 121 -44 192 -17 72 -35 149 -40 173 -6 23 -10 57
-10 75 0 17 -6 43 -13 57 -8 14 -14 44 -15 65 -2 53 -34 195 -44 195 -12 0
-10 34 3 47 8 8 8 17 0 31 -7 13 -9 48 -4 96 5 65 9 76 24 76 13 0 19 -7 19
-23 0 -12 11 -38 24 -57 13 -19 26 -49 30 -67 4 -17 14 -34 23 -37 8 -4 13
-13 10 -20 -3 -8 3 -51 14 -96 10 -45 19 -90 19 -101 0 -10 5 -19 10 -19 6 0
10 -12 10 -27 0 -42 42 -226 86 -371 4 -14 40 -8 58 9 11 10 -33 238 -50 259
-6 8 -12 33 -12 55 -1 22 -6 60 -13 85 -6 25 -14 89 -16 143 -5 116 10 129 51
45 15 -29 30 -60 35 -68 5 -8 15 -49 22 -90 6 -41 17 -84 24 -95 6 -11 12 -39
13 -62 1 -23 8 -61 16 -85 8 -24 16 -63 19 -87 7 -55 17 -65 50 -50 28 13 28
10 7 119 -21 109 -51 310 -57 376 -4 53 -2 73 7 79 8 5 18 2 25 -8 7 -10 19
-17 27 -17 19 0 38 -20 38 -41 0 -24 19 -34 26 -14 4 9 -1 24 -11 35 -13 15
-16 29 -12 58 7 41 32 98 48 107 5 4 9 15 9 26 0 25 26 25 40 -1 6 -11 15 -20
20 -20 6 0 1 17 -10 37 -40 75 -17 183 73 332 34 57 52 97 52 121 3 86 5 100
19 100 10 0 19 -20 27 -57 15 -68 47 -103 110 -122 44 -13 139 -99 139 -126 0
-26 23 -65 42 -70 10 -4 18 -15 18 -25 0 -11 10 -20 25 -24 44 -11 106 -132
76 -150 -18 -11 -13 -26 9 -26 13 0 18 5 14 15 -3 8 5 25 19 39 18 17 25 35
24 58 -2 22 3 33 14 36 20 4 39 -38 39 -84 0 -19 4 -43 10 -53 5 -10 14 -56
19 -102 10 -92 42 -322 46 -327 1 -1 16 3 33 9 l32 11 -6 76 c-3 43 -14 133
-25 202 -29 191 -32 259 -16 305 14 36 37 60 37 37 0 -5 12 -22 26 -37 18 -20
24 -34 20 -51 -3 -12 -2 -26 4 -29 5 -3 10 -18 10 -33 0 -15 6 -58 14 -97 30
-145 46 -241 46 -277 0 -52 9 -68 36 -68 29 0 29 4 9 124 -8 49 -12 93 -10 97
3 4 -2 60 -10 125 -40 333 -46 418 -29 469 8 22 14 55 14 73 0 21 5 32 15 32
17 0 35 -30 35 -61 0 -12 7 -30 16 -40 9 -10 18 -35 19 -56 2 -21 11 -85 19
-143 31 -210 76 -567 77 -615 1 -28 5 -63 9 -80 11 -42 11 95 1 205 -6 55 -5
87 1 91 15 9 5 152 -10 157 -16 5 -15 27 2 41 15 13 11 102 -6 139 -9 16 -8
28 1 46 9 16 11 40 7 72 -4 27 -7 85 -6 130 1 62 -2 83 -15 94 -14 11 -14 15
0 36 20 31 21 130 0 138 -20 7 -19 40 1 57 13 11 15 24 10 67 -6 49 -4 56 19
78 20 18 25 33 25 69 0 25 -4 45 -10 45 -17 0 -11 26 11 54 36 45 95 69 175
70 63 0 75 -3 107 -27 36 -27 36 -28 34 -96 l-3 -69 43 -26 c40 -24 52 -44 37
-59 -10 -10 -13 -87 -3 -87 5 0 9 -41 9 -91 0 -76 3 -94 18 -105 16 -13 16
-15 -2 -29 -16 -12 -18 -22 -12 -62 3 -26 11 -52 16 -57 13 -13 13 -43 1 -48
-6 -2 -7 -30 -4 -66 5 -49 10 -65 26 -74 20 -10 20 -9 13 138 -10 213 -24 399
-35 469 -16 96 -18 282 -4 296 10 10 9 15 -4 24 -14 10 -9 23 43 110 56 95 65
125 43 151 -7 8 1 34 22 75 27 53 34 79 38 154 7 106 25 120 48 40 8 -27 19
-59 23 -70 40 -94 54 -123 76 -153 19 -25 23 -37 15 -45 -22 -22 -11 -62 29
-110 51 -62 110 -143 110 -151 0 -3 -7 -6 -15 -6 -16 0 -20 -16 -6 -24 11 -7
21 -291 11 -325 -4 -14 -3 -98 2 -186 9 -167 29 -781 28 -850 l-1 -39 23 20
c13 12 51 47 86 79 l62 58 -6 134 c-7 123 -3 167 22 298 4 23 61 55 98 55 13
0 35 -9 49 -20 22 -18 35 -20 89 -14 47 5 73 2 102 -10 21 -9 51 -16 66 -16
54 0 60 -8 60 -70 0 -77 15 -116 52 -134 l30 -15 -7 47 c-3 26 -2 60 4 75 9
22 17 27 45 27 43 0 50 -18 41 -100 -5 -46 -3 -64 9 -82 9 -12 16 -38 16 -58
0 -19 3 -59 7 -88 6 -50 8 -55 58 -87 29 -19 55 -35 58 -35 16 0 155 239 162
280 1 8 6 36 9 63 6 41 10 47 32 47 15 0 24 6 24 15 0 9 6 26 14 38 8 12 31
73 51 135 30 91 36 125 33 175 -3 58 -1 62 19 65 15 2 25 12 29 30 3 15 15 60
25 101 11 41 19 89 19 105 0 17 4 46 9 63 10 35 43 312 61 513 8 93 8 133 0
155 -16 43 -3 152 21 169 10 7 22 27 25 44 11 53 54 38 54 -18 0 -9 9 -24 21
-31 17 -12 20 -25 20 -72 0 -32 -6 -71 -15 -89 -14 -27 -16 -89 -16 -443 0
-227 3 -440 6 -474 6 -56 9 -61 30 -61 28 0 31 -20 12 -82 -9 -29 -9 -44 -1
-58 7 -10 8 -21 2 -27 -5 -5 -4 -35 2 -73 6 -36 12 -74 13 -85 8 -66 30 -117
54 -126 23 -9 24 -13 19 -54 -4 -28 -3 -45 4 -45 6 0 8 -4 5 -9 -8 -13 78
-242 132 -350 l47 -94 6 54 c3 33 1 57 -5 62 -8 6 -7 10 1 13 7 3 10 18 6 38
-4 27 -1 36 17 49 17 12 27 34 36 84 8 37 18 88 23 113 6 28 19 53 35 67 21
18 26 31 26 71 0 51 28 130 55 152 9 8 15 30 15 59 0 56 35 117 97 171 22 19
55 48 74 64 38 33 131 70 229 92 81 17 210 19 233 2 26 -20 57 -121 57 -186 0
-46 4 -61 21 -76 21 -17 21 -23 15 -149 -4 -73 -9 -140 -12 -149 -4 -13 6 -20
42 -30 39 -11 50 -20 68 -54 17 -34 29 -44 68 -56 26 -8 45 -11 42 -7 -19 31
74 6 179 -47 60 -30 177 -104 197 -124 3 -3 27 -23 54 -44 27 -22 68 -66 92
-99 l44 -59 0 -97 c0 -53 -5 -112 -11 -131 -5 -19 -13 -105 -18 -190 -4 -86
-10 -161 -14 -166 -3 -6 5 -16 18 -22 15 -7 25 -8 25 -2 0 5 14 40 31 77 37
80 69 178 69 211 0 13 -4 32 -10 42 -7 14 -3 27 17 56 26 39 46 147 43 232 0
18 6 54 14 80 7 27 12 60 9 75 -3 15 -2 35 3 44 4 10 8 20 9 23 8 29 18 50 24
50 12 0 30 51 30 85 -1 17 1 50 2 75 2 40 0 45 -19 48 -25 4 -31 42 -7 42 16
0 18 11 15 70 -1 26 7 46 29 74 25 32 31 48 31 90 0 28 7 76 15 106 10 35 15
105 16 194 1 137 1 140 27 168 15 15 32 28 39 28 7 0 17 9 23 20 27 51 62 3
75 -104 6 -55 5 -60 -23 -90 -33 -35 -41 -63 -48 -190 -5 -75 -4 -88 8 -83 18
7 29 -1 51 -36 20 -31 37 -28 37 6 0 33 27 67 47 60 13 -5 14 -16 9 -64 l-6
-57 33 10 c52 17 107 22 107 9 0 -7 -17 -22 -37 -34 l-38 -22 58 -3 c49 -3 57
-6 57 -22 0 -13 -9 -22 -27 -26 -16 -3 -41 -9 -58 -14 l-30 -7 35 -10 c25 -7
36 -16 38 -33 4 -22 2 -22 -39 -16 -83 13 -110 -56 -74 -193 8 -31 17 -78 20
-105 5 -36 10 -45 18 -37 23 23 55 11 91 -33 43 -52 45 -75 9 -118 -16 -18
-37 -51 -48 -73 -18 -37 -109 -135 -125 -135 -4 0 -17 -44 -29 -98 -13 -53
-29 -117 -36 -142 -14 -49 -67 -400 -60 -400 1 0 59 25 131 56 192 84 316 134
330 134 7 0 32 -38 55 -84 l42 -85 36 16 c33 14 71 26 128 40 20 5 27 -3 53
-61 17 -36 49 -121 71 -189 49 -152 48 -151 83 -137 15 5 31 10 36 10 13 0 81
-148 135 -290 7 -19 22 -56 32 -82 l18 -48 93 0 92 0 0 2935 0 2935 -4740 0
-4740 0 0 -2935z m3670 2763 l0 -82 33 32 c24 23 42 32 67 32 l34 0 -38 -39
c-40 -41 -40 -59 -1 -91 9 -7 21 -22 26 -32 9 -16 6 -18 -25 -18 -29 0 -39 7
-65 42 l-31 42 0 -42 c0 -38 -2 -42 -25 -42 l-25 0 0 140 0 140 25 0 c25 0 25
-1 25 -82z m2500 -57 l0 -138 -76 -1 c-67 -1 -78 1 -100 23 -34 34 -33 97 2
132 22 22 32 25 75 21 l49 -5 0 53 c0 51 1 54 25 54 l25 0 0 -139z m-3067 107
c26 -21 32 -63 10 -84 -17 -18 -17 -19 5 -41 29 -29 28 -68 -3 -98 -21 -22
-33 -25 -100 -25 l-75 0 0 130 0 130 73 0 c43 0 80 -5 90 -12z m895 -35 l30
-46 29 46 c24 41 32 47 61 47 l34 0 -23 -37 c-12 -21 -35 -57 -51 -80 -22 -32
-28 -53 -28 -92 0 -48 -2 -51 -25 -51 -24 0 -25 3 -25 53 0 43 -6 61 -33 102
-19 28 -42 62 -52 78 l-17 27 35 0 c30 0 38 -6 65 -47z m1012 27 c0 -17 -7
-20 -40 -20 l-40 0 0 -110 0 -110 -25 0 -25 0 0 110 0 110 -40 0 c-33 0 -40 3
-40 20 0 19 7 20 105 20 98 0 105 -1 105 -20z m190 -5 c0 -20 -5 -25 -24 -25
-14 0 -28 5 -31 10 -12 19 4 40 30 40 20 0 25 -5 25 -25z m570 5 c0 -17 -7
-20 -40 -20 l-40 0 0 -110 0 -110 -25 0 -25 0 0 110 0 110 -40 0 c-33 0 -40 3
-40 20 0 19 7 20 105 20 98 0 105 -1 105 -20z m-2435 -85 c19 -18 25 -35 25
-65 0 -58 -33 -90 -95 -90 -59 0 -105 40 -105 90 0 22 9 41 29 61 40 39 109
41 146 4z m229 -6 c15 -17 26 -43 26 -59 0 -16 -11 -42 -26 -59 -22 -27 -32
-31 -75 -31 -66 0 -99 30 -99 90 0 60 33 90 99 90 43 0 53 -4 75 -31z m731 5
c17 -19 25 -39 25 -64 0 -57 -36 -90 -98 -90 -54 0 -87 22 -98 65 -16 66 26
115 98 115 40 0 53 -5 73 -26z m115 -33 c0 -66 18 -94 45 -71 10 8 15 31 15
71 0 59 0 59 30 59 l30 0 0 -90 c0 -89 0 -90 -25 -90 -14 0 -25 5 -25 12 0 9
-3 9 -12 0 -17 -17 -74 -15 -92 4 -12 11 -16 36 -16 90 0 72 1 74 25 74 24 0
25 -3 25 -59z m280 32 c0 -17 -4 -23 -14 -20 -7 3 -23 -1 -35 -9 -17 -12 -21
-25 -21 -70 0 -51 -1 -54 -25 -54 -25 0 -25 1 -25 89 l0 89 60 1 c58 0 60 -1
60 -26z m430 0 c0 -17 -4 -23 -14 -20 -7 3 -23 -1 -35 -9 -17 -12 -21 -25 -21
-70 0 -51 -1 -54 -25 -54 -25 0 -25 1 -25 89 l0 89 60 1 c58 0 60 -1 60 -26z
m80 -63 l0 -90 -30 0 -30 0 0 90 0 90 30 0 30 0 0 -90z m210 70 c39 -39 38
-102 -1 -141 -18 -18 -30 -20 -70 -17 l-49 5 0 -43 c0 -40 -2 -44 -25 -44
l-25 0 0 129 0 129 75 1 c62 1 79 -3 95 -19z m507 -4 c22 -19 28 -32 28 -66 0
-57 -37 -90 -100 -90 -64 0 -98 31 -97 91 1 35 6 49 27 67 37 31 104 30 142
-2z m437 2 c11 -15 16 -45 16 -89 l0 -67 -70 -1 c-50 0 -73 4 -85 15 -22 22
-19 70 5 87 18 13 19 16 5 27 -14 12 -14 15 1 31 26 29 108 26 128 -3z m114
-30 l20 -53 15 35 c8 19 17 43 20 53 6 16 57 25 57 10 0 -17 -84 -219 -98
-235 -18 -21 -92 -25 -92 -5 0 17 15 38 26 36 47 -9 50 25 9 120 -19 46 -35
85 -35 87 0 2 13 4 29 4 25 0 31 -6 49 -52z m-3350 -690 c20 -12 47 -29 59
-38 18 -14 30 -15 71 -7 27 6 56 7 65 4 20 -7 23 -47 5 -65 -18 -18 12 -25 84
-18 228 21 260 17 266 -36 4 -32 -23 -50 -158 -103 -111 -44 -131 -61 -123
-109 5 -33 4 -35 -33 -45 -22 -6 -48 -11 -60 -11 -29 0 -36 -10 -19 -27 32
-31 5 -58 -67 -68 -29 -4 -64 -15 -78 -25 -44 -31 -109 -60 -133 -60 -12 0
-28 -5 -34 -11 -7 -7 -13 -7 -17 -1 -3 5 26 45 65 88 39 44 84 96 101 117 l30
38 -43 -7 c-24 -4 -69 -13 -99 -20 -30 -8 -68 -14 -85 -14 -31 0 -63 -18 -106
-58 -13 -13 -35 -28 -49 -35 -26 -13 -60 -12 -60 2 0 10 -92 -4 -119 -18 -11
-6 -37 -10 -58 -9 -21 0 -48 -4 -60 -10 -44 -24 -116 -43 -140 -38 -24 7 -93
-19 -93 -35 0 -5 -13 -15 -29 -23 -16 -9 -43 -29 -59 -46 -28 -28 -41 -32
-109 -34 -12 -1 -34 -13 -50 -27 -15 -15 -55 -41 -89 -57 -34 -17 -87 -56
-118 -86 -31 -31 -62 -56 -69 -56 -7 0 -28 -8 -47 -19 -19 -10 -62 -26 -95
-36 -33 -9 -65 -21 -71 -26 -6 -5 -14 -6 -17 -3 -3 4 -12 -5 -18 -20 -7 -14
-15 -26 -19 -26 -4 0 -18 -9 -31 -21 -13 -11 -39 -33 -58 -47 -19 -15 -43 -35
-53 -44 -20 -20 -38 -23 -38 -8 0 13 -35 -4 -65 -30 -29 -26 -85 -36 -85 -16
0 29 33 86 49 84 9 -2 20 6 25 18 5 11 29 31 54 44 24 13 51 34 59 47 20 29
98 83 122 83 17 0 110 46 121 60 3 4 25 17 50 31 25 13 60 36 78 51 18 16 40
28 48 28 22 0 101 48 107 65 3 7 25 22 49 33 24 10 52 29 62 41 11 11 25 21
32 21 7 0 20 10 28 22 18 25 89 55 155 63 72 10 192 53 211 76 13 15 52 29 83
29 19 0 48 7 63 15 16 8 40 15 54 15 14 1 41 14 60 30 19 17 45 30 59 30 24 0
23 3 -22 48 -26 26 -47 53 -47 59 0 17 34 33 70 33 32 0 158 -40 208 -66 38
-20 44 -19 148 23 l92 37 -14 26 c-28 50 -39 66 -94 137 -45 59 -47 68 -22 83
23 13 74 4 120 -22z m3750 -634 c2 -14 -17 -49 -52 -95 -31 -41 -56 -77 -56
-80 0 -3 33 -19 74 -36 l74 -31 53 22 c90 36 166 51 184 36 24 -20 18 -46 -20
-79 l-36 -31 34 0 c25 0 42 -9 67 -35 19 -19 41 -35 49 -35 8 0 34 -11 58 -26
24 -14 48 -22 53 -19 12 8 80 -21 80 -34 0 -6 5 -11 10 -11 6 0 33 -15 61 -34
27 -19 60 -38 72 -41 55 -16 133 -50 140 -62 4 -7 13 -13 19 -13 6 0 18 -7 27
-15 47 -42 99 -82 121 -92 14 -6 50 -33 80 -60 30 -28 65 -53 78 -57 13 -4 28
-18 34 -31 5 -12 32 -39 59 -59 26 -21 51 -46 54 -57 4 -10 10 -19 15 -19 6 0
26 -16 46 -35 19 -19 40 -35 45 -35 16 0 89 -84 89 -102 0 -9 20 -37 45 -61
25 -25 45 -55 45 -66 0 -14 6 -21 19 -21 15 0 20 -10 25 -50 4 -28 4 -55 1
-60 -10 -16 -56 16 -89 61 -20 26 -38 39 -53 39 -13 0 -23 5 -23 11 0 6 -14
29 -32 51 -49 62 -78 108 -78 122 0 7 -18 26 -40 41 -22 15 -40 31 -40 36 0 4
-17 13 -37 19 -21 7 -49 22 -63 34 -14 12 -42 34 -62 50 -21 15 -38 32 -38 37
0 23 -67 91 -106 108 -23 10 -59 35 -81 55 -29 26 -50 36 -73 36 -34 0 -100
27 -100 41 0 5 -24 34 -53 64 -41 43 -62 57 -92 62 -22 3 -69 21 -105 40 -36
18 -77 33 -91 33 -14 0 -55 15 -91 33 -46 23 -76 32 -97 29 -23 -3 -38 4 -73
35 -43 39 -52 42 -210 73 l-37 7 18 -26 c11 -14 42 -52 70 -84 28 -32 51 -62
51 -68 0 -23 -62 -5 -135 40 -22 14 -53 26 -70 28 -51 5 -58 11 -53 43 4 26 1
30 -18 30 -13 0 -35 5 -49 12 -22 10 -26 17 -22 41 3 21 -2 33 -21 48 -14 10
-29 19 -35 19 -24 0 -158 72 -167 90 -8 16 -6 22 15 36 28 18 74 21 185 9 l76
-8 -1 29 c0 28 2 29 51 30 36 1 70 11 115 33 71 35 102 37 107 5z m-1958 -999
c36 -19 63 -66 55 -98 -7 -25 -50 -77 -64 -77 -5 0 -8 -15 -7 -32 1 -30 -2
-33 -29 -33 -26 0 -30 4 -30 27 -1 16 -12 40 -28 56 -52 54 -45 115 16 152 39
24 49 24 87 5z m-292 -124 c29 -25 28 -58 -4 -120 -28 -53 -59 -68 -70 -33 -3
9 -12 29 -20 44 -20 37 -17 71 7 102 24 30 55 33 87 7z m470 -141 c23 -22 29
-64 11 -75 -5 -4 -14 -18 -19 -31 -15 -37 -45 -30 -69 16 -23 45 -20 84 8 100
25 15 45 12 69 -10z m-928 -820 c0 -5 -4 -10 -10 -10 -5 0 -10 5 -10 10 0 6 5
10 10 10 6 0 10 -4 10 -10z"/>
<path d="M6040 5620 c-11 -11 -20 -24 -20 -30 0 -12 37 -50 48 -50 18 0 52 33
52 50 0 17 -34 50 -52 50 -5 0 -17 -9 -28 -20z"/>
<path d="M2990 5690 c0 -25 4 -30 23 -30 13 0 32 7 43 15 19 15 19 15 0 30
-11 8 -30 15 -43 15 -19 0 -23 -5 -23 -30z"/>
<path d="M2990 5580 c0 -36 2 -40 26 -40 36 0 64 17 64 40 0 23 -28 40 -64 40
-24 0 -26 -4 -26 -40z"/>
<path d="M3238 5629 c-26 -14 -23 -65 3 -79 16 -9 26 -8 45 5 30 19 31 49 2
69 -26 19 -27 19 -50 5z"/>
<path d="M3462 5624 c-12 -8 -22 -24 -22 -34 0 -17 34 -50 52 -50 11 0 48 38
48 50 0 12 -37 50 -48 50 -4 0 -18 -7 -30 -16z"/>
<path d="M4190 5620 c-11 -11 -20 -24 -20 -30 0 -12 37 -50 48 -50 18 0 52 33
52 50 0 17 -34 50 -52 50 -5 0 -17 -9 -28 -20z"/>
<path d="M5312 5624 c-12 -8 -22 -24 -22 -34 0 -17 34 -50 52 -50 11 0 48 38
48 50 0 12 -37 50 -48 50 -4 0 -18 -7 -30 -16z"/>
<path d="M5821 5623 c-12 -8 -21 -23 -21 -33 0 -43 73 -59 85 -19 15 47 -25
80 -64 52z"/>
<path d="M6265 5630 c-16 -7 -11 -9 20 -9 29 -1 36 2 25 9 -17 11 -19 11 -45
0z"/>
<path d="M6270 5569 c-22 -9 -23 -11 -8 -20 19 -11 58 4 58 21 0 12 -17 12
-50 -1z"/>
<path d="M3040 4925 c0 -3 16 -28 37 -54 36 -49 36 -49 53 -28 17 21 16 22
-24 47 -63 40 -66 42 -66 35z"/>
<path d="M3188 4833 c6 -2 18 -2 25 0 6 3 1 5 -13 5 -14 0 -19 -2 -12 -5z"/>
<path d="M3194 4787 l-51 -10 26 -55 26 -54 45 5 c25 2 61 12 80 21 19 9 26
14 15 11 -89 -26 -143 -10 -131 38 3 15 12 27 19 27 6 0 21 7 31 15 22 17 17
17 -60 2z"/>
<path d="M3463 4777 c-27 -5 -43 -14 -43 -23 0 -8 5 -14 10 -14 16 0 11 -32
-7 -47 -10 -7 7 -4 37 8 30 12 69 26 85 33 40 15 71 33 65 39 -11 10 -107 13
-147 4z"/>
<path d="M3280 4750 c-13 -9 -13 -10 0 -9 8 0 24 4 35 9 l20 9 -20 0 c-11 0
-27 -4 -35 -9z"/>
<path d="M2707 4645 c21 -19 44 -35 51 -35 7 0 20 -5 30 -11 12 -8 26 -6 52 5
19 8 28 15 20 16 -8 0 -48 14 -89 30 -96 39 -111 38 -64 -5z"/>
<path d="M3115 4664 c-16 -7 -46 -20 -65 -27 -34 -13 -34 -14 -13 -25 29 -16
153 -4 132 12 -8 6 -16 20 -17 31 -5 25 -2 25 -37 9z"/>
<path d="M2938 4593 c-10 -2 -18 -9 -18 -15 0 -6 10 -8 23 -4 12 3 33 6 47 7
23 0 23 1 5 9 -22 9 -31 10 -57 3z"/>
<path d="M3240 4588 c-26 -7 -43 -23 -66 -57 -29 -46 -29 -47 -8 -43 29 5 51
30 56 61 2 18 13 27 43 37 47 14 26 16 -25 2z"/>
<path d="M2525 4460 c3 -5 8 -10 11 -10 2 0 4 5 4 10 0 6 -5 10 -11 10 -5 0
-7 -4 -4 -10z"/>
<path d="M3100 4435 c-8 -9 -8 -15 -2 -15 12 0 26 19 19 26 -2 2 -10 -2 -17
-11z"/>
<path d="M6766 4255 c-10 -7 -15 -18 -11 -24 9 -16 18 -13 38 14 20 28 5 34
-27 10z"/>
<path d="M6394 4165 c16 -9 48 -24 72 -34 35 -16 42 -17 37 -4 -3 8 0 19 8 24
25 16 -11 29 -81 29 -64 0 -65 0 -36 -15z"/>
<path d="M6684 4167 c29 -21 16 -51 -24 -57 -27 -4 -31 -7 -17 -13 44 -17 55
-9 95 76 2 4 -13 7 -34 7 -34 0 -36 -1 -20 -13z"/>
<path d="M6734 4069 c-8 -14 14 -29 44 -29 12 0 25 0 29 -1 4 0 9 3 10 8 2 5
-12 14 -30 21 -41 15 -44 15 -53 1z"/>
<path d="M7022 4061 c-32 -13 -39 -20 -31 -28 11 -11 50 3 99 36 24 17 -18 12
-68 -8z"/>
<path d="M6684 3996 c3 -28 21 -54 31 -44 4 3 -3 21 -14 39 -20 33 -20 33 -17
5z"/>
<path d="M4571 3134 c0 -11 3 -14 6 -6 3 7 2 16 -1 19 -3 4 -6 -2 -5 -13z"/>
<path d="M5052 3000 c0 -14 2 -19 5 -12 2 6 2 18 0 25 -3 6 -5 1 -5 -13z"/>
<path d="M3819 3402 c-7 -20 -15 -41 -17 -45 -3 -6 45 0 55 7 1 1 -4 18 -11
39 l-12 36 -15 -37z"/>
<path d="M3797 3277 c4 -19 10 -23 34 -19 20 3 29 10 29 23 0 15 -7 19 -34 19
-29 0 -33 -3 -29 -23z"/>
<path d="M3890 3280 c0 -11 5 -20 10 -20 6 0 10 9 10 20 0 11 -4 20 -10 20 -5
0 -10 -9 -10 -20z"/>
<path d="M3900 3030 c-8 -5 -28 -10 -45 -10 l-30 0 33 -20 c102 -62 59 -200
-63 -200 -38 0 -52 5 -75 28 l-28 28 5 -60 c3 -34 7 -63 9 -65 1 -1 31 4 66
13 36 9 76 16 90 16 15 0 39 4 53 10 l26 10 -7 122 c-3 68 -9 126 -13 130 -3
4 -13 3 -21 -2z"/>
<path d="M3970 2990 c0 -16 5 -30 10 -30 6 0 10 4 10 9 0 5 10 13 22 17 l21 6
-24 14 c-35 19 -39 17 -39 -16z"/>
<path d="M3694 2975 c-11 -27 2 -37 14 -11 7 16 8 26 1 26 -5 0 -12 -7 -15
-15z"/>
<path d="M3745 2948 c-15 -23 -15 -23 32 -28 60 -6 69 -31 21 -57 -32 -17 -32
-18 -9 -21 30 -5 75 28 79 56 2 13 -7 32 -22 47 -32 32 -79 34 -101 3z"/>
<path d="M3354 2934 c3 -9 6 -35 6 -58 l0 -42 38 4 37 4 0 54 0 54 -44 0 c-35
0 -42 -3 -37 -16z"/>
<path d="M4016 2935 c-9 -24 -8 -25 15 -25 14 0 19 5 17 17 -4 23 -24 27 -32
8z"/>
<path d="M3730 2880 c0 -5 4 -10 9 -10 6 0 13 5 16 10 3 6 -1 10 -9 10 -9 0
-16 -4 -16 -10z"/>
<path d="M3322 2855 c0 -16 2 -22 5 -12 2 9 2 23 0 30 -3 6 -5 -1 -5 -18z"/>
<path d="M4035 2850 c-3 -5 -1 -10 4 -10 6 0 11 5 11 10 0 6 -2 10 -4 10 -3 0
-8 -4 -11 -10z"/>
<path d="M3980 2809 c0 -22 7 -30 38 -42 20 -8 39 -11 40 -6 8 20 -8 39 -32
39 -14 0 -30 8 -35 18 -9 15 -10 13 -11 -9z"/>
<path d="M3481 2714 c0 -11 3 -14 6 -6 3 7 2 16 -1 19 -3 4 -6 -2 -5 -13z"/>
<path d="M3410 2710 c0 -5 5 -10 11 -10 5 0 7 5 4 10 -3 6 -8 10 -11 10 -2 0
-4 -4 -4 -10z"/>
<path d="M3458 2613 c5 -10 11 -25 14 -33 3 -9 9 -2 16 18 10 30 10 32 -14 32
-20 0 -23 -3 -16 -17z"/>
<path d="M3531 2612 c0 -4 4 -16 8 -26 7 -19 8 -19 13 1 4 14 0 24 -8 27 -8 3
-14 2 -13 -2z"/>
<path d="M8095 2610 c3 -5 8 -10 11 -10 2 0 4 5 4 10 0 6 -5 10 -11 10 -5 0
-7 -4 -4 -10z"/>
<path d="M3275 2591 c-3 -5 -1 -12 4 -15 5 -3 11 1 15 9 6 16 -9 21 -19 6z"/>
<path d="M3424 2536 c-4 -11 -2 -21 7 -27 18 -11 24 5 10 28 -9 17 -10 17 -17
-1z"/>
<path d="M3366 2513 c-6 -14 -5 -15 5 -6 7 7 10 15 7 18 -3 3 -9 -2 -12 -12z"/>
<path d="M3751 2504 c0 -11 3 -14 6 -6 3 7 2 16 -1 19 -3 4 -6 -2 -5 -13z"/>
<path d="M6740 2510 l-45 -7 55 -2 c30 -1 65 -4 78 -7 16 -5 22 -2 22 10 0 17
-27 19 -110 6z"/>
<path d="M3903 2473 c9 -2 23 -2 30 0 6 3 -1 5 -18 5 -16 0 -22 -2 -12 -5z"/>
<path d="M6678 2473 c-56 -6 -46 -18 14 -18 70 0 79 -19 11 -23 -83 -5 -62
-17 32 -19 l85 -1 0 27 c0 25 -5 29 -37 35 -21 3 -45 5 -53 4 -8 -1 -32 -3
-52 -5z"/>
<path d="M3420 2425 c0 -8 2 -15 4 -15 2 0 6 7 10 15 3 8 1 15 -4 15 -6 0 -10
-7 -10 -15z"/>
<path d="M3345 2419 c-4 -6 -5 -12 -2 -15 2 -3 7 2 10 11 7 17 1 20 -8 4z"/>
<path d="M6540 2410 c-21 -7 -21 -8 -5 -9 11 0 27 4 35 9 18 11 5 11 -30 0z"/>
<path d="M3380 2373 c0 -13 5 -23 10 -23 13 0 13 11 0 30 -8 12 -10 11 -10 -7z"/>
<path d="M6688 2383 c23 -2 59 -2 80 0 20 2 1 4 -43 4 -44 0 -61 -2 -37 -4z"/>
<path d="M3450 2360 c0 -5 5 -10 10 -10 6 0 10 5 10 10 0 6 -4 10 -10 10 -5 0
-10 -4 -10 -10z"/>
<path d="M3520 2360 c0 -5 5 -10 10 -10 6 0 10 5 10 10 0 6 -4 10 -10 10 -5 0
-10 -4 -10 -10z"/>
<path d="M8063 2309 c-6 -35 -7 -71 -3 -78 5 -9 11 11 15 51 10 89 2 106 -12
27z"/>
<path d="M3306 2345 c-3 -8 -1 -15 4 -15 6 0 10 7 10 15 0 8 -2 15 -4 15 -2 0
-6 -7 -10 -15z"/>
<path d="M3590 2351 c0 -6 4 -13 10 -16 6 -3 7 1 4 9 -7 18 -14 21 -14 7z"/>
<path d="M6305 2340 c-10 -11 -13 -20 -8 -20 13 0 38 29 31 35 -3 3 -13 -4
-23 -15z"/>
<path d="M6478 2353 c6 -2 18 -2 25 0 6 3 1 5 -13 5 -14 0 -19 -2 -12 -5z"/>
<path d="M6803 2343 c15 -2 37 -2 50 0 12 2 0 4 -28 4 -27 0 -38 -2 -22 -4z"/>
<path d="M3240 2319 c0 -5 5 -7 10 -4 6 3 10 8 10 11 0 2 -4 4 -10 4 -5 0 -10
-5 -10 -11z"/>
<path d="M3822 2300 c0 -19 2 -27 5 -17 2 9 2 25 0 35 -3 9 -5 1 -5 -18z"/>
<path d="M6348 2323 c-10 -2 -18 -11 -18 -19 0 -12 5 -12 33 2 17 9 34 18 36
20 6 5 -29 3 -51 -3z"/>
<path d="M5536 2304 c-12 -30 -6 -44 18 -44 19 0 22 4 19 24 -6 29 -29 41 -37
20z"/>
<path d="M6655 2300 c11 -5 58 -8 105 -8 l85 1 -60 7 c-86 11 -155 11 -130 0z"/>
<path d="M2206 2291 c-4 -5 3 -7 14 -4 23 6 26 13 6 13 -8 0 -17 -4 -20 -9z"/>
<path d="M6568 2293 c12 -2 32 -2 45 0 12 2 2 4 -23 4 -25 0 -35 -2 -22 -4z"/>
<path d="M3040 2274 c0 -8 5 -12 10 -9 6 4 8 11 5 16 -9 14 -15 11 -15 -7z"/>
<path d="M3560 2266 c0 -8 5 -18 10 -21 6 -3 10 1 10 9 0 8 -4 18 -10 21 -5 3
-10 -1 -10 -9z"/>
<path d="M2221 2241 c-50 -16 -56 -22 -85 -77 -35 -66 -56 -128 -56 -167 0
-22 15 -69 27 -86 3 -4 31 9 103 45 42 21 148 37 202 31 l51 -6 -6 68 c-7 82
-37 138 -95 175 -52 35 -79 38 -141 17z"/>
<path d="M5427 2253 c-4 -3 -7 -12 -7 -20 0 -11 4 -11 20 -3 11 6 18 15 15 21
-7 11 -19 12 -28 2z"/>
<path d="M5630 2250 c-11 -7 -12 -12 -3 -21 14 -14 56 -2 50 14 -5 16 -28 19
-47 7z"/>
<path d="M6551 2249 c-86 -15 -74 -21 24 -14 95 7 283 -8 316 -25 15 -8 19 -7
19 4 0 8 -4 17 -8 20 -30 18 -273 29 -351 15z"/>
<path d="M3885 2220 c-16 -7 -13 -9 17 -9 20 -1 40 4 43 9 7 12 -32 12 -60 0z"/>
<path d="M4005 2220 c27 -12 43 -12 25 0 -8 5 -22 9 -30 9 -10 0 -8 -3 5 -9z"/>
<path d="M6410 2220 c-13 -9 -13 -10 0 -9 8 1 26 5 40 9 l25 8 -25 1 c-14 0
-32 -4 -40 -9z"/>
<path d="M3330 2185 c0 -19 4 -35 8 -35 4 0 6 16 4 35 -2 19 -6 35 -8 35 -2 0
-4 -16 -4 -35z"/>
<path d="M3402 2190 c0 -19 2 -27 5 -17 2 9 2 25 0 35 -3 9 -5 1 -5 -18z"/>
<path d="M3263 2170 c0 -25 2 -35 4 -22 2 12 2 32 0 45 -2 12 -4 2 -4 -23z"/>
<path d="M3472 2185 c0 -16 2 -22 5 -12 2 9 2 23 0 30 -3 6 -5 -1 -5 -18z"/>
<path d="M5510 2163 c-27 -111 -29 -103 30 -103 l53 0 -7 53 c-3 28 -6 62 -6
75 0 18 -6 22 -29 22 -27 0 -30 -4 -41 -47z"/>
<path d="M4347 2168 c-3 -18 -8 -43 -12 -55 -5 -17 -3 -23 8 -23 11 0 16 14
19 55 3 60 -7 75 -15 23z"/>
<path d="M4418 2018 c4 -261 8 -285 10 -56 1 120 6 199 12 203 9 5 -10 35 -22
35 -2 0 -2 -82 0 -182z"/>
<path d="M5461 2184 c0 -11 3 -14 6 -6 3 7 2 16 -1 19 -3 4 -6 -2 -5 -13z"/>
<path d="M6578 2192 c-13 -5 -15 -11 -8 -22 5 -8 10 -40 11 -70 l2 -55 6 43
c9 51 40 96 70 100 25 4 50 -22 51 -50 0 -26 13 -22 38 12 13 17 30 31 40 31
9 1 -3 5 -28 10 -55 9 -159 10 -182 1z"/>
<path d="M8057 2193 c-4 -3 -7 -11 -7 -17 0 -6 5 -5 12 2 6 6 9 14 7 17 -3 3
-9 2 -12 -2z"/>
<path d="M6488 2183 c-32 -5 -34 -11 -14 -39 14 -18 15 -18 25 7 5 15 16 29
23 32 15 6 6 6 -34 0z"/>
<path d="M4505 2173 l-40 -4 2 -127 c2 -70 6 -159 9 -199 5 -61 8 -72 27 -78
38 -13 42 -11 47 29 7 55 30 60 30 7 0 -44 35 -111 58 -111 6 0 12 -4 12 -8 0
-4 30 -38 67 -76 l67 -68 197 -5 c177 -5 197 -4 195 10 -3 20 -49 57 -71 57
-9 0 -38 18 -64 40 -26 22 -51 40 -57 40 -38 2 -59 55 -71 180 -9 99 -23 79
-23 -32 0 -59 -4 -109 -9 -113 -13 -7 -30 54 -37 137 -5 47 -12 73 -25 84 -18
16 -19 15 -19 -40 0 -64 -16 -108 -31 -85 -5 8 -9 24 -9 37 0 15 -6 22 -20 22
-19 0 -20 -7 -20 -91 0 -68 -3 -90 -12 -87 -23 8 -40 225 -19 238 8 4 9 41 5
113 l-7 106 -39 16 c-37 14 -58 16 -143 8z m37 -203 c-1 -79 -4 -146 -7 -148
-13 -14 -19 19 -23 128 -5 127 1 174 21 167 9 -3 11 -42 9 -147z m72 68 c3
-13 6 -71 6 -130 0 -89 -3 -108 -15 -108 -13 0 -15 21 -15 130 0 120 9 162 24
108z m186 -346 c14 -7 35 -29 48 -47 12 -19 29 -35 37 -35 17 0 18 -2 9 -24
-9 -23 -36 -20 -58 7 -11 12 -34 39 -53 60 -18 21 -31 42 -27 48 3 6 9 9 12 7
4 -2 18 -9 32 -16z"/>
<path d="M6841 2146 c12 -20 19 -49 19 -83 0 -45 3 -53 19 -53 16 0 19 10 23
78 3 42 4 78 4 78 -1 1 -20 4 -43 7 l-41 5 19 -32z"/>
<path d="M3051 2161 c-11 -7 -11 -23 0 -100 11 -79 15 -91 32 -91 17 0 19 5
13 41 -4 22 -9 67 -13 100 -6 61 -9 65 -32 50z"/>
<path d="M5386 2155 c-9 -25 -8 -27 17 -23 12 2 22 10 22 18 0 21 -31 24 -39
5z"/>
<path d="M6398 2162 c-12 -5 -14 -12 -9 -21 7 -11 11 -9 20 8 7 11 10 21 9 20
-2 0 -11 -3 -20 -7z"/>
<path d="M5643 2153 c-18 -7 -16 -20 3 -27 19 -7 47 12 38 25 -6 10 -21 10
-41 2z"/>
<path d="M6636 2108 c-9 -12 -16 -33 -16 -45 0 -19 5 -23 30 -23 26 0 30 3 30
29 0 61 -18 76 -44 39z"/>
<path d="M6776 2107 c-14 -14 -26 -37 -26 -50 0 -21 6 -25 35 -29 35 -4 35 -4
35 37 0 62 -13 73 -44 42z"/>
<path d="M6517 2091 c-22 -37 -21 -41 2 -41 22 0 36 32 24 55 -7 12 -12 9 -26
-14z"/>
<path d="M8190 2079 c0 -32 3 -40 16 -37 31 6 40 35 20 57 -28 31 -36 26 -36
-20z"/>
<path d="M5431 2101 c-8 -6 -9 -11 -3 -15 6 -3 14 -1 17 5 9 14 2 20 -14 10z"/>
<path d="M3420 2084 c0 -8 5 -12 10 -9 6 3 10 10 10 16 0 5 -4 9 -10 9 -5 0
-10 -7 -10 -16z"/>
<path d="M3486 2085 c4 -8 10 -12 15 -9 14 8 10 24 -6 24 -9 0 -12 -6 -9 -15z"/>
<path d="M3557 2079 c6 -23 9 -24 16 -5 3 8 0 17 -7 19 -10 4 -12 -1 -9 -14z"/>
<path d="M6420 2081 c-13 -26 -13 -31 5 -31 9 0 15 9 15 25 0 30 -6 32 -20 6z"/>
<path d="M3361 2074 c0 -11 3 -14 6 -6 3 7 2 16 -1 19 -3 4 -6 -2 -5 -13z"/>
<path d="M3667 2083 c-4 -3 -7 -35 -7 -70 0 -49 3 -63 15 -63 17 0 21 -35 5
-45 -5 -3 -10 -40 -10 -81 0 -69 1 -74 21 -74 21 0 22 3 15 92 -3 50 -6 126
-6 170 0 58 -3 78 -13 78 -8 0 -17 -3 -20 -7z"/>
<path d="M3822 2040 c0 -19 2 -27 5 -17 2 9 2 25 0 35 -3 9 -5 1 -5 -18z"/>
<path d="M5645 2060 c-4 -6 7 -10 24 -10 17 0 31 5 31 10 0 6 -11 10 -24 10
-14 0 -28 -4 -31 -10z"/>
<path d="M6341 2054 c0 -11 3 -14 6 -6 3 7 2 16 -1 19 -3 4 -6 -2 -5 -13z"/>
<path d="M3952 2040 c0 -14 2 -19 5 -12 2 6 2 18 0 25 -3 6 -5 1 -5 -13z"/>
<path d="M3393 1985 c0 -22 2 -30 4 -17 2 12 2 30 0 40 -3 9 -5 -1 -4 -23z"/>
<path d="M2513 1998 c-8 -14 -33 -79 -33 -89 0 -9 103 11 114 21 11 11 -40 80
-59 80 -8 0 -17 -6 -22 -12z"/>
<path d="M3452 1980 c0 -19 2 -27 5 -17 2 9 2 25 0 35 -3 9 -5 1 -5 -18z"/>
<path d="M4373 1970 c0 -25 2 -35 4 -22 2 12 2 32 0 45 -2 12 -4 2 -4 -23z"/>
<path d="M8110 1985 c-6 -8 -10 -19 -8 -26 2 -6 9 0 16 15 13 29 10 33 -8 11z"/>
<path d="M3262 1960 c0 -14 2 -19 5 -12 2 6 2 18 0 25 -3 6 -5 1 -5 -13z"/>
<path d="M3332 1960 c0 -14 2 -19 5 -12 2 6 2 18 0 25 -3 6 -5 1 -5 -13z"/>
<path d="M3521 1964 c0 -11 3 -14 6 -6 3 7 2 16 -1 19 -3 4 -6 -2 -5 -13z"/>
<path d="M3581 1964 c0 -11 3 -14 6 -6 3 7 2 16 -1 19 -3 4 -6 -2 -5 -13z"/>
<path d="M3823 1966 c-99 -15 -102 -26 -7 -25 94 2 136 9 142 27 4 14 -31 14
-135 -2z"/>
<path d="M4010 1969 c0 -4 14 -9 30 -11 17 -3 30 -1 30 3 0 4 -13 9 -30 11
-16 3 -30 1 -30 -3z"/>
<path d="M4752 1960 c0 -14 2 -19 5 -12 2 6 2 18 0 25 -3 6 -5 1 -5 -13z"/>
<path d="M6421 1966 c2 -2 65 -5 139 -8 81 -3 117 -2 90 3 -45 7 -237 12 -229
5z"/>
<path d="M6338 1953 c7 -3 16 -2 19 1 4 3 -2 6 -13 5 -11 0 -14 -3 -6 -6z"/>
<path d="M2358 1943 c17 -2 47 -2 65 0 17 2 3 4 -33 4 -36 0 -50 -2 -32 -4z"/>
<path d="M6258 1943 c7 -3 16 -2 19 1 4 3 -2 6 -13 5 -11 0 -14 -3 -6 -6z"/>
<path d="M6765 1934 c33 -7 84 -18 113 -23 29 -6 57 -13 62 -16 23 -14 70 -23
70 -14 0 14 -42 28 -149 50 -110 23 -191 26 -96 3z"/>
<path d="M4332 1863 c-1 -46 1 -83 4 -83 21 0 44 24 44 47 0 26 -1 26 -14 7
-18 -24 -24 -11 -29 61 -2 33 -4 23 -5 -32z"/>
<path d="M863 1923 c-7 -3 -13 -15 -13 -28 0 -27 28 -42 37 -19 8 20 -9 52
-24 47z"/>
<path d="M2890 1906 c0 -51 13 -116 24 -116 11 0 11 67 0 118 -6 29 -24 28
-24 -2z"/>
<path d="M3090 1912 c-12 -2 -14 -18 -12 -85 2 -45 5 -83 6 -84 1 -1 12 0 25
4 20 5 22 10 16 42 -4 20 -10 56 -14 81 -4 33 -10 45 -21 42z"/>
<path d="M4003 1914 c10 -11 67 -13 67 -3 0 5 -16 9 -37 9 -20 0 -33 -3 -30
-6z"/>
<path d="M6340 1905 c0 -8 9 -15 20 -15 11 0 23 0 28 -1 4 0 8 7 10 15 3 12
-5 16 -27 16 -21 0 -31 -5 -31 -15z"/>
<path d="M6436 1904 c-4 -9 -4 -19 -1 -22 3 -3 5 0 5 6 0 16 43 15 58 0 9 -9
12 -7 12 10 0 18 -6 22 -34 22 -22 0 -36 -6 -40 -16z"/>
<path d="M6556 1904 c-8 -22 -9 -22 17 -17 32 6 45 -14 50 -77 3 -48 4 -45 5
21 2 62 -1 78 -14 83 -28 11 -52 6 -58 -10z"/>
<path d="M2300 1894 c-80 -22 -160 -61 -160 -80 0 -11 6 -14 23 -8 12 4 36 10
52 14 17 4 66 18 110 30 44 12 90 25 102 27 13 3 20 10 16 19 -7 18 -70 17
-143 -2z"/>
<path d="M5486 1893 c-6 -14 -5 -15 5 -6 7 7 10 15 7 18 -3 3 -9 -2 -12 -12z"/>
<path d="M6280 1900 c-13 -8 -12 -10 3 -10 9 0 17 5 17 10 0 12 -1 12 -20 0z"/>
<path d="M1212 1880 c-18 -11 -32 -23 -32 -27 0 -4 5 -2 12 5 7 7 16 12 20 12
16 0 7 -23 -22 -60 -40 -51 -38 -58 9 -21 28 22 40 40 44 68 4 20 5 38 4 40
-2 1 -17 -7 -35 -17z"/>
<path d="M6667 1893 c-2 -5 -7 -20 -11 -35 l-6 -27 24 24 c32 32 43 31 78 -2
l28 -27 0 31 c0 27 -4 31 -37 37 -50 8 -71 8 -76 -1z"/>
<path d="M3380 1883 c0 -5 4 -14 9 -21 6 -10 10 -9 14 7 3 14 0 21 -9 21 -8 0
-14 -3 -14 -7z"/>
<path d="M3456 1875 c4 -8 7 -15 9 -15 2 0 5 7 9 15 3 9 0 15 -9 15 -9 0 -12
-6 -9 -15z"/>
<path d="M3300 1873 c0 -5 5 -15 10 -23 8 -12 10 -11 10 8 0 12 -4 22 -10 22
-5 0 -10 -3 -10 -7z"/>
<path d="M6810 1849 c0 -29 1 -30 22 -15 30 21 64 20 87 -3 18 -18 19 -18 24
-1 4 15 -6 21 -52 34 -77 21 -81 21 -81 -15z"/>
<path d="M2028 1840 c-15 -9 -35 -66 -26 -75 2 -2 27 5 56 14 44 15 49 19 31
24 -13 4 -20 9 -16 13 7 7 -10 34 -22 34 -3 0 -14 -5 -23 -10z"/>
<path d="M7041 1819 c-17 -50 -13 -78 15 -102 17 -15 28 -38 33 -72 5 -27 9
-42 10 -33 1 19 48 78 62 78 6 0 20 -10 33 -23 27 -27 39 -94 28 -147 -7 -32
-11 -35 -45 -35 -20 0 -37 -1 -37 -3 0 -2 -5 -35 -11 -73 -10 -66 -10 -70 12
-87 18 -15 22 -29 23 -77 0 -50 2 -54 11 -32 15 36 45 67 67 67 25 0 58 -57
58 -100 l0 -35 20 33 c11 18 27 35 35 38 24 10 45 -16 45 -54 0 -36 0 -36 16
-14 23 33 55 25 69 -17 7 -22 14 -30 19 -23 11 19 37 14 43 -8 4 -16 9 -18 19
-10 9 8 24 8 48 1 33 -9 36 -8 36 12 0 16 -12 29 -42 45 -24 12 -48 22 -54 22
-7 0 -14 6 -17 13 -5 15 -147 87 -170 87 -10 0 -17 5 -17 10 0 6 -6 10 -14 10
-17 0 -28 24 -20 45 4 10 0 15 -15 15 -12 0 -21 -4 -21 -10 0 -26 -20 -6 -26
26 -5 26 0 52 18 97 20 52 28 63 50 65 21 3 28 -3 38 -30 7 -18 14 -27 17 -20
2 6 12 12 21 12 15 1 15 2 0 14 -23 17 -23 58 0 79 41 37 72 13 72 -55 0 -37
-4 -48 -16 -48 -11 0 -14 -5 -10 -16 3 -9 6 -22 6 -29 0 -10 5 -11 25 -2 17 9
23 17 19 30 -8 27 22 67 51 67 15 0 26 7 30 20 3 11 11 20 17 20 6 0 6 6 -2
15 -17 20 -30 19 -30 -3 0 -27 -8 -32 -41 -20 -41 14 -55 43 -35 73 15 23 14
25 -16 46 l-31 22 -18 -22 c-13 -15 -27 -21 -45 -19 -37 4 -52 30 -38 67 11
29 11 29 -54 61 -57 28 -66 30 -74 16 -9 -17 -38 -22 -38 -7 0 6 -100 51 -115
51 -2 0 -8 -14 -14 -31z"/>
<path d="M2294 1797 c-139 -37 -151 -42 -141 -58 6 -10 14 -14 17 -9 6 10 69
28 213 63 76 19 103 35 71 43 -5 1 -77 -16 -160 -39z"/>
<path d="M3500 1792 c0 -29 4 -52 10 -52 6 0 7 19 3 48 -8 64 -13 66 -13 4z"/>
<path d="M5357 1826 c-8 -6 -17 -19 -21 -29 -5 -17 -4 -17 22 1 15 11 34 21
42 24 10 3 8 6 -7 10 -12 3 -28 1 -36 -6z"/>
<path d="M3573 1790 c0 -25 2 -35 4 -22 2 12 2 32 0 45 -2 12 -4 2 -4 -23z"/>
<path d="M6975 1788 c-4 -24 -13 -50 -20 -58 -7 -8 -15 -35 -16 -60 -3 -39 -1
-45 17 -48 19 -3 22 3 27 70 4 40 9 88 13 106 4 19 3 32 -4 32 -6 0 -13 -19
-17 -42z"/>
<path d="M8078 1823 c-10 -2 -18 -9 -18 -14 0 -6 8 -5 20 1 11 6 20 13 20 15
0 3 -1 4 -2 4 -2 -1 -11 -3 -20 -6z"/>
<path d="M2617 1809 c-9 -6 -21 -8 -26 -5 -4 3 -24 1 -43 -5 l-36 -9 10 -43
c5 -23 13 -67 17 -97 l9 -55 1 45 c1 54 23 90 56 90 23 0 30 -13 59 -100 11
-36 4 31 -12 107 -16 72 -20 80 -35 72z"/>
<path d="M2703 1805 c-20 -22 -16 -55 7 -55 11 0 26 -12 35 -27 l16 -28 -6 33
c-16 97 -24 110 -52 77z"/>
<path d="M3348 1791 c-12 -50 -10 -77 3 -64 5 5 9 30 7 54 l-3 44 -7 -34z"/>
<path d="M5634 1807 c11 -7 34 -25 53 -41 32 -27 33 -27 33 -6 0 43 -18 60
-63 59 -37 0 -40 -2 -23 -12z"/>
<path d="M6452 1798 c-26 -52 -32 -78 -17 -78 14 0 18 10 30 68 8 38 3 41 -13
10z"/>
<path d="M1092 1789 c-15 -23 -16 -42 -2 -34 16 10 31 43 22 49 -4 2 -13 -4
-20 -15z"/>
<path d="M6557 1765 c-21 -43 -21 -55 -3 -55 9 0 15 15 18 43 3 23 4 43 3 44
-1 2 -9 -13 -18 -32z"/>
<path d="M3427 1777 c-11 -29 -9 -53 4 -40 6 6 9 21 7 34 -3 21 -4 22 -11 6z"/>
<path d="M5400 1772 c-45 -31 -81 -74 -101 -120 -11 -25 -17 -47 -14 -50 3 -3
5 0 5 7 0 23 85 103 135 127 83 39 152 29 223 -32 47 -40 66 -72 94 -154 l18
-55 -4 59 c-3 33 -11 65 -20 75 -9 10 -16 22 -16 27 0 18 -95 103 -132 119
-51 20 -156 19 -188 -3z"/>
<path d="M6712 1777 c-7 -7 -18 -30 -27 -49 -13 -32 -13 -37 1 -42 28 -11 32
-6 39 45 8 55 4 67 -13 46z"/>
<path d="M6772 1765 c0 -16 2 -22 5 -12 2 9 2 23 0 30 -3 6 -5 -1 -5 -18z"/>
<path d="M3260 1753 c0 -18 5 -33 10 -33 13 0 13 30 0 50 -7 11 -10 7 -10 -17z"/>
<path d="M6337 1751 c-4 -17 -3 -21 5 -13 5 5 8 16 6 23 -3 8 -7 3 -11 -10z"/>
<path d="M6861 1757 c-12 -15 -41 -82 -41 -95 0 -5 16 -14 36 -20 26 -8 34 -8
31 1 -2 7 2 29 9 50 19 55 -5 99 -35 64z"/>
<path d="M5199 1740 l-24 -19 29 8 c16 4 31 12 34 19 6 18 -13 14 -39 -8z"/>
<path d="M870 1715 c-116 -48 -118 -49 -92 -53 36 -5 172 50 172 70 0 12 -20
8 -80 -17z"/>
<path d="M4330 1725 c-16 -5 -37 -17 -47 -25 -147 -128 -173 -154 -173 -172 0
-19 4 -20 43 -14 23 3 158 9 300 13 142 3 260 10 263 14 5 9 -25 40 -81 81
-21 16 -45 42 -52 58 -8 21 -19 30 -36 30 -12 0 -27 4 -32 9 -14 14 -150 18
-185 6z m132 -79 c15 -22 7 -27 -42 -23 -55 4 -65 9 -57 29 6 17 88 12 99 -6z"/>
<path d="M1001 1714 c0 -11 3 -14 6 -6 3 7 2 16 -1 19 -3 4 -6 -2 -5 -13z"/>
<path d="M2363 1714 c-24 -8 -62 -20 -85 -27 -41 -13 -43 -16 -46 -58 l-3 -44
19 34 c10 19 34 43 53 53 43 23 125 22 139 -1 12 -21 13 1 0 33 -11 29 -18 30
-77 10z"/>
<path d="M2920 1680 c0 -38 4 -50 15 -50 16 0 20 36 9 78 -11 39 -24 24 -24
-28z"/>
<path d="M5476 1709 c-53 -13 -119 -69 -145 -124 -11 -24 -21 -49 -21 -54 0
-5 37 -12 83 -15 130 -11 280 -27 305 -33 21 -5 22 -3 16 23 -17 75 -117 204
-158 204 -8 0 -20 2 -28 4 -7 2 -31 0 -52 -5z"/>
<path d="M3681 1590 c1 -113 2 -120 21 -120 14 0 18 5 14 16 -3 9 -6 63 -6
120 0 87 -3 104 -15 104 -13 0 -16 -18 -14 -120z"/>
<path d="M1499 1693 c-14 -3 -14 -10 -3 -61 7 -31 16 -74 19 -94 5 -35 7 -37
30 -26 29 13 29 8 10 78 -8 30 -15 67 -15 83 0 26 -7 30 -41 20z"/>
<path d="M5205 1690 c-3 -5 -2 -17 3 -25 7 -13 10 -12 20 10 9 20 9 25 -3 25
-7 0 -17 -4 -20 -10z"/>
<path d="M6223 1693 c9 -2 23 -2 30 0 6 3 -1 5 -18 5 -16 0 -22 -2 -12 -5z"/>
<path d="M3115 1682 c-19 -3 -20 -7 -11 -98 6 -60 13 -93 20 -91 6 3 19 0 28
-5 16 -8 17 -4 12 39 -4 27 -12 73 -18 103 -9 46 -14 55 -31 52z"/>
<path d="M3413 1683 c-20 -4 -21 -5 -5 -22 15 -15 18 -15 29 -1 14 17 17 31 6
29 -5 -1 -18 -4 -30 -6z"/>
<path d="M3494 1669 c15 -12 28 -20 29 -18 2 2 9 12 16 22 12 16 10 17 -29 17
l-43 0 27 -21z"/>
<path d="M3590 1681 c0 -6 4 -13 10 -16 6 -3 7 1 4 9 -7 18 -14 21 -14 7z"/>
<path d="M3926 1683 c-4 -4 -30 -9 -59 -10 -62 -4 -117 -21 -117 -35 0 -6 12
-8 28 -5 16 3 63 9 105 13 66 6 77 9 77 25 0 19 -20 26 -34 12z"/>
<path d="M4010 1675 c0 -7 15 -15 35 -17 19 -2 35 -1 35 2 0 4 -16 11 -35 17
-28 9 -35 8 -35 -2z"/>
<path d="M2597 1674 c-11 -11 -8 -74 3 -74 6 0 13 6 15 13 7 17 -9 70 -18 61z"/>
<path d="M2711 1664 c0 -11 3 -14 6 -6 3 7 2 16 -1 19 -3 4 -6 -2 -5 -13z"/>
<path d="M5135 1671 c-9 -15 8 -35 24 -30 8 3 7 10 -2 23 -10 14 -16 16 -22 7z"/>
<path d="M910 1650 c-19 -11 -28 -19 -20 -20 8 0 38 -11 67 -24 l52 -25 -11
25 c-6 13 -19 26 -29 29 -10 3 -19 12 -21 20 -2 11 -10 10 -38 -5z"/>
<path d="M2084 1656 c-10 -7 -31 -16 -46 -20 -33 -8 -34 -22 -14 -105 8 -31
20 -91 27 -134 13 -75 20 -81 33 -24 5 19 3 27 -8 27 -28 0 -37 157 -10 184
20 21 30 20 54 -4 23 -23 25 -11 7 42 -17 48 -19 50 -43 34z"/>
<path d="M3320 1661 c0 -17 18 -21 24 -6 3 9 0 15 -9 15 -8 0 -15 -4 -15 -9z"/>
<path d="M8348 1650 c-7 -11 -18 -20 -25 -20 -17 0 -16 -15 1 -29 10 -8 16 -9
21 -1 3 5 16 10 29 10 31 0 36 7 22 35 -13 30 -32 32 -48 5z"/>
<path d="M2323 1630 c-43 -26 -56 -54 -50 -107 6 -52 7 -54 33 -47 16 4 19 14
19 62 0 52 2 57 27 66 34 12 64 -11 73 -56 4 -16 9 -27 12 -24 9 9 -26 98 -44
112 -24 18 -33 17 -70 -6z"/>
<path d="M2761 1624 c0 -7 -9 -14 -19 -16 -15 -4 -18 -12 -14 -37 2 -17 10
-31 17 -31 7 0 20 -10 29 -22 10 -15 14 -17 10 -5 -4 9 -10 41 -14 70 -4 28
-8 47 -9 41z"/>
<path d="M3456 1608 c-3 -13 -6 -60 -6 -105 0 -76 1 -81 20 -76 18 5 20 14 20
73 0 108 -18 166 -34 108z"/>
<path d="M3557 1613 c-3 -10 -8 -54 -12 -97 -6 -71 -5 -78 10 -72 9 3 19 6 21
6 9 0 4 169 -5 175 -5 3 -12 -3 -14 -12z"/>
<path d="M1080 1611 c0 -6 4 -13 10 -16 6 -3 7 1 4 9 -7 18 -14 21 -14 7z"/>
<path d="M3367 1590 c-4 -14 -7 -60 -7 -102 0 -63 3 -78 15 -78 12 0 15 13 14
58 0 31 -4 77 -8 102 -6 39 -8 42 -14 20z"/>
<path d="M6198 1603 c7 -3 16 -2 19 1 4 3 -2 6 -13 5 -11 0 -14 -3 -6 -6z"/>
<path d="M6808 1603 c7 -3 16 -2 19 1 4 3 -2 6 -13 5 -11 0 -14 -3 -6 -6z"/>
<path d="M1908 1583 c-2 -10 1 -47 6 -83 9 -60 10 -62 16 -30 8 44 17 60 36
60 8 0 14 10 14 25 0 18 -7 28 -26 35 -35 14 -41 13 -46 -7z"/>
<path d="M6935 1566 c50 -18 104 -40 122 -49 39 -21 43 -21 43 -3 0 8 -13 19
-30 25 -16 5 -30 7 -30 4 0 -3 -6 -1 -12 5 -12 9 -159 53 -176 52 -4 -1 34
-16 83 -34z"/>
<path d="M6372 1578 c6 -18 28 -21 28 -4 0 9 -7 16 -16 16 -9 0 -14 -5 -12
-12z"/>
<path d="M735 1570 l-50 -7 58 -1 c32 -1 57 2 57 8 0 6 -3 9 -7 8 -5 0 -30 -4
-58 -8z"/>
<path d="M902 1549 c14 -41 37 -69 160 -193 54 -54 98 -102 98 -106 0 -4 16
-10 35 -12 23 -3 32 -1 25 6 -6 6 -10 18 -10 28 0 12 -7 18 -21 18 -39 0 -87
38 -104 83 -11 29 -27 49 -49 61 -18 10 -50 34 -70 54 -29 27 -36 41 -31 59 3
13 1 23 -4 23 -5 0 -16 3 -25 6 -14 5 -14 2 -4 -27z"/>
<path d="M1726 1543 c9 -50 23 -87 30 -80 8 8 -18 117 -28 117 -5 0 -6 -17 -2
-37z"/>
<path d="M2551 1574 c0 -5 6 -36 14 -69 10 -46 14 -52 14 -27 1 30 30 72 50
72 4 0 19 -9 33 -19 l24 -19 -4 34 c-4 33 -6 35 -35 28 -17 -3 -40 -12 -50
-18 -15 -9 -21 -7 -33 8 -8 11 -14 16 -13 10z"/>
<path d="M3279 1484 c-3 -78 -1 -100 9 -97 14 6 15 81 3 153 -7 39 -8 31 -12
-56z"/>
<path d="M6436 1564 c-9 -24 -4 -24 18 -3 16 16 17 19 4 19 -9 0 -19 -7 -22
-16z"/>
<path d="M2947 1562 c-12 -2 -16 -9 -13 -19 3 -8 6 -26 6 -39 0 -26 7 -29 29
-15 21 14 2 78 -22 73z"/>
<path d="M6502 1543 c19 -45 25 -47 30 -9 4 32 1 36 -19 36 -21 0 -22 -2 -11
-27z"/>
<path d="M970 1541 c0 -7 68 -71 75 -71 2 0 -1 13 -6 29 -7 19 -21 33 -40 40
-16 5 -29 7 -29 2z"/>
<path d="M1116 1537 c3 -10 9 -15 12 -12 3 3 0 11 -7 18 -10 9 -11 8 -5 -6z"/>
<path d="M6568 1532 c-5 -18 -1 -19 32 -15 31 4 40 1 54 -18 9 -13 16 -33 17
-44 0 -20 0 -20 9 0 5 11 9 32 9 47 1 29 -5 32 -75 43 -36 5 -42 4 -46 -13z"/>
<path d="M2085 1530 c-7 -11 2 -80 10 -80 26 0 32 13 20 45 -14 42 -21 50 -30
35z"/>
<path d="M5865 1530 c3 -5 14 -10 23 -10 15 0 15 2 2 10 -20 13 -33 13 -25 0z"/>
<path d="M620 1520 c8 -5 24 -10 34 -10 26 0 18 6 -19 14 -22 5 -26 4 -15 -4z"/>
<path d="M6726 1496 c-3 -11 -6 -29 -6 -39 0 -16 3 -15 30 5 45 33 81 17 96
-41 l10 -43 12 39 c7 22 12 45 12 51 0 11 -38 25 -107 40 -38 9 -42 8 -47 -12z"/>
<path d="M7949 1493 l-24 -28 28 24 c15 14 27 26 27 28 0 8 -8 1 -31 -24z"/>
<path d="M1130 1507 c0 -4 14 -37 32 -72 17 -36 28 -68 24 -73 -9 -8 -25 11
-62 73 -30 51 -31 25 -1 -35 19 -38 28 -46 58 -51 l37 -5 -32 65 c-37 77 -55
109 -56 98z"/>
<path d="M5813 1492 c0 -12 5 -22 9 -22 11 0 10 12 -2 30 -7 12 -9 10 -7 -8z"/>
<path d="M7636 1494 c-4 -11 -14 -15 -31 -12 -21 4 -24 1 -27 -26 -2 -25 -7
-31 -25 -30 -13 0 -23 -5 -23 -13 0 -7 9 -13 20 -13 14 0 20 -7 20 -21 0 -31
17 -14 24 26 5 26 12 35 27 35 11 0 17 5 14 10 -4 6 1 22 9 35 9 14 12 25 7
25 -5 0 -12 -7 -15 -16z"/>
<path d="M6332 1463 c-31 -91 -31 -93 -17 -93 15 0 21 15 31 83 8 57 3 60 -14
10z"/>
<path d="M8260 1484 c0 -8 5 -12 10 -9 6 4 8 11 5 16 -9 14 -15 11 -15 -7z"/>
<path d="M2621 1467 c-20 -52 -12 -71 27 -60 27 7 28 33 3 64 l-19 24 -11 -28z"/>
<path d="M2420 1473 c0 -14 51 -113 59 -113 8 0 -1 69 -14 103 -7 16 -45 25
-45 10z"/>
<path d="M4315 1474 c-11 -1 -99 -10 -195 -19 -96 -9 -218 -23 -270 -32 -52
-8 -102 -14 -110 -14 -28 0 -235 -31 -285 -43 -42 -11 -50 -17 -57 -43 -7 -26
-15 -32 -68 -46 -33 -9 -68 -17 -78 -17 -11 0 -33 -5 -49 -10 -24 -9 -29 -16
-26 -34 4 -20 -1 -23 -59 -35 -35 -7 -79 -16 -100 -18 -23 -3 -38 -11 -41 -22
-2 -10 -22 -22 -48 -29 -24 -7 -60 -19 -79 -26 -37 -15 -208 -49 -225 -46 -27
6 -34 -1 -29 -29 13 -63 -86 -126 -323 -206 -78 -26 -98 -37 -128 -72 -32 -38
-34 -44 -23 -63 10 -17 19 -20 43 -15 17 4 57 8 90 9 69 3 191 24 219 38 11 6
50 13 88 15 38 3 81 11 96 19 39 20 171 19 179 -1 3 -9 4 -18 1 -20 -11 -11
-200 -43 -251 -43 -44 1 -63 -4 -80 -19 -35 -31 -83 -46 -133 -40 -30 3 -68
-2 -112 -15 -41 -13 -82 -18 -109 -15 -24 2 -43 1 -43 -4 0 -5 -5 -9 -11 -9
-6 0 -22 -9 -36 -20 -14 -11 -36 -20 -49 -20 -15 0 -24 -6 -24 -15 0 -11 12
-15 45 -15 32 0 45 -4 45 -14 0 -17 -27 -46 -42 -46 -22 0 -88 -34 -88 -45 0
-17 108 12 139 36 13 11 29 19 35 19 6 0 26 13 44 30 33 30 86 50 133 50 15 0
43 7 62 15 20 8 53 15 74 15 21 0 47 7 57 15 25 19 86 19 160 0 44 -12 67 -13
95 -5 47 13 217 13 242 0 10 -6 19 -21 19 -33 l0 -23 178 2 c97 0 215 -4 262
-10 77 -11 85 -14 88 -35 7 -49 -8 -71 -88 -126 -78 -56 -111 -95 -124 -148
-9 -40 -75 -99 -136 -122 -29 -11 -71 -32 -94 -47 l-41 -28 1093 0 1092 0 0
21 c0 11 -9 33 -21 47 -17 22 -20 35 -14 77 6 50 6 50 -40 88 -40 33 -45 43
-45 78 0 33 6 46 40 78 22 21 40 47 40 58 0 11 9 28 19 37 28 26 16 56 -23 57
-35 1 -62 9 -91 26 -16 9 -20 21 -18 57 1 40 -1 45 -25 53 -15 4 -56 7 -92 5
-36 -2 -115 -5 -177 -7 -61 -2 -129 -8 -150 -14 -54 -15 -95 -14 -122 5 -13 9
-41 21 -62 25 -22 5 -57 21 -78 34 -20 14 -68 32 -106 40 -37 7 -72 18 -78 24
-12 12 6 110 29 154 8 16 14 40 14 54 0 20 8 28 43 41 23 9 74 33 112 53 39
20 100 44 136 54 56 16 64 21 53 33 -10 10 -11 19 -4 32 6 10 10 28 10 39 0
11 11 28 25 39 22 18 39 20 141 19 64 -1 118 1 120 5 7 10 -26 38 -45 38 -10
0 -26 9 -36 20 -17 19 -18 19 -34 0 -15 -17 -49 -25 -94 -22 -10 1 -22 13 -27
27 -10 26 -14 29 -62 39 -23 5 -28 12 -28 35 l0 28 -107 0 c-60 0 -117 -1
-128 -3z"/>
<path d="M4657 1458 c-4 -13 0 -29 8 -38 8 -9 15 -22 15 -28 0 -21 29 -13 52
13 26 30 52 32 81 5 12 -12 33 -23 47 -27 38 -9 50 -22 50 -57 0 -58 -6 -60
-147 -61 l-128 0 -3 -25 c-3 -25 -3 -25 80 -24 116 2 229 21 243 41 8 11 21
14 41 10 17 -3 40 0 54 8 38 21 233 20 251 -1 7 -8 26 -22 43 -31 31 -16 31
-15 14 4 -42 47 -7 54 92 19 25 -9 57 -18 71 -21 14 -2 31 -16 39 -30 7 -14
22 -25 32 -25 11 0 34 -14 51 -32 29 -28 32 -29 36 -12 6 37 22 44 92 44 59 0
69 -3 70 -17 0 -14 2 -13 9 4 5 12 18 27 30 33 34 18 140 16 177 -3 18 -10 55
-17 86 -17 36 0 59 -5 67 -15 7 -8 17 -15 23 -15 14 0 87 -73 87 -87 0 -20
-19 -25 -53 -15 -17 6 -53 13 -78 16 -45 5 -46 5 -41 -20 3 -17 -3 -33 -19
-51 -17 -18 -20 -27 -11 -30 6 -3 12 -16 12 -29 0 -17 8 -27 25 -34 14 -5 25
-14 25 -19 0 -5 14 -14 31 -21 18 -8 38 -28 49 -51 15 -28 27 -38 47 -41 25
-3 28 -8 31 -43 2 -22 10 -48 19 -57 26 -29 9 -48 -41 -48 -39 0 -48 4 -63 27
-23 35 -86 93 -124 114 -48 27 -58 39 -65 77 -5 25 -21 51 -50 79 -40 38 -50
43 -139 59 -63 12 -103 25 -117 38 -19 18 -36 20 -157 21 -132 0 -199 11 -266
41 -16 7 -48 15 -70 16 -32 2 -41 7 -43 24 -4 28 -54 34 -247 28 -184 -6 -182
-6 -238 2 -32 4 -52 2 -63 -7 -18 -15 -111 -49 -134 -49 -8 0 -58 -22 -112
-49 -53 -26 -105 -51 -117 -54 -14 -3 -21 -13 -21 -30 0 -13 -7 -37 -15 -54
-8 -16 -18 -44 -21 -60 -6 -31 -6 -31 47 -38 51 -7 123 -37 135 -56 3 -5 15
-9 28 -9 12 0 44 -11 71 -24 38 -20 52 -23 68 -14 11 6 75 11 141 12 74 1 130
6 143 14 25 14 143 8 208 -10 45 -13 85 -44 85 -66 0 -9 -7 -23 -16 -33 -18
-20 -13 -23 66 -34 40 -5 47 -10 63 -44 24 -54 22 -77 -13 -103 -18 -13 -30
-31 -30 -45 0 -13 -12 -31 -30 -44 -46 -35 -46 -48 6 -95 46 -43 47 -44 42
-95 -5 -44 -2 -55 18 -76 15 -17 24 -38 24 -59 l0 -34 329 0 329 0 5 22 c4 14
-3 38 -18 65 -20 33 -23 47 -16 66 11 29 23 33 106 42 100 10 105 12 105 44 0
16 -7 42 -15 57 -8 16 -15 46 -15 66 0 47 31 70 109 79 75 10 128 29 161 59
15 14 46 34 70 45 l42 21 -43 13 c-24 7 -50 15 -56 17 -19 5 -16 35 5 50 21
16 259 19 311 4 23 -6 48 -6 77 1 40 10 42 12 32 34 -9 20 -16 23 -39 18 -19
-4 -30 -1 -34 8 -4 10 -20 13 -59 11 -47 -3 -57 -1 -68 17 -7 12 -23 21 -35
21 -15 0 -34 17 -62 57 -23 31 -41 62 -41 70 0 20 25 26 52 12 13 -7 39 -15
58 -18 27 -5 39 -13 50 -38 12 -26 22 -32 55 -36 52 -6 128 -31 188 -62 26
-14 55 -25 65 -25 9 0 31 -9 48 -19 23 -14 43 -18 76 -14 55 6 82 -15 73 -56
-5 -25 0 -31 56 -64 34 -20 66 -37 70 -37 17 0 69 -84 69 -111 0 -17 12 -42
28 -61 16 -18 34 -48 42 -66 7 -19 20 -40 28 -48 12 -13 16 -10 33 23 10 20
19 48 19 60 0 33 15 36 121 23 52 -6 127 -14 167 -17 65 -5 78 -10 108 -38 19
-18 34 -42 34 -54 0 -13 7 -29 15 -37 8 -9 15 -30 16 -47 1 -30 1 -31 8 -7 6
19 13 24 31 22 13 -1 29 -7 36 -13 17 -14 44 -95 44 -131 l0 -28 96 0 c83 0
95 2 84 14 -6 8 -10 25 -8 38 5 35 66 37 123 4 24 -14 51 -26 60 -26 8 0 18
-7 21 -15 8 -19 144 -22 144 -4 0 6 -16 29 -36 51 -20 22 -42 55 -50 73 -7 18
-36 49 -64 70 -74 55 -60 102 18 61 15 -7 50 -24 79 -36 28 -13 53 -31 56 -41
3 -9 23 -27 46 -39 23 -11 46 -31 51 -44 5 -13 14 -27 19 -31 6 -3 11 -15 11
-26 0 -10 5 -19 10 -19 13 0 13 16 -1 42 -14 26 -3 68 18 68 14 0 13 3 -5 16
-18 12 -22 23 -20 56 3 41 3 42 -67 85 -38 23 -77 46 -85 50 -8 4 -35 19 -61
33 -25 15 -67 40 -95 55 -27 15 -77 43 -112 62 -34 19 -69 33 -76 30 -8 -3
-16 2 -19 12 -2 10 -24 28 -48 40 -24 13 -68 37 -98 53 -95 53 -443 225 -541
268 -52 23 -108 48 -125 55 -25 11 -86 36 -235 97 -14 5 -56 20 -95 34 -38 13
-97 33 -130 44 -33 12 -80 28 -105 35 -25 7 -67 20 -95 28 -176 53 -260 75
-420 112 -36 8 -93 22 -127 30 -35 9 -83 16 -108 17 -25 0 -50 4 -55 9 -20 15
-129 28 -137 15 -5 -7 -11 -5 -20 7 -9 11 -30 19 -58 21 -25 2 -52 6 -61 10
-11 5 -18 1 -21 -12 -4 -13 -22 -25 -54 -35 -66 -20 -242 -22 -317 -2 -68 18
-163 20 -173 4 -4 -6 -20 -8 -39 -5 -19 4 -36 2 -40 -4 -9 -14 -101 -13 -117
3 -7 7 -25 20 -40 29 -14 10 -28 28 -30 40 -2 17 -9 22 -23 20 -11 -2 -53 -6
-93 -9 -65 -5 -78 -3 -103 16 -36 27 -45 26 -52 -1z m1949 -350 c42 -13 87
-33 100 -45 27 -25 32 -63 9 -63 -18 0 -11 -40 12 -76 17 -27 9 -34 -30 -24
-18 5 -52 14 -77 20 -55 14 -110 49 -110 71 0 9 -18 24 -42 34 -55 24 -78 44
-78 66 0 21 28 30 123 38 9 0 52 -9 93 -21z m1284 -567 c0 -10 -9 -29 -19 -42
-15 -18 -22 -21 -31 -12 -10 9 -9 18 1 42 15 34 49 43 49 12z m-170 -115 c0
-22 -29 -41 -42 -28 -8 8 -8 15 2 27 16 19 40 20 40 1z"/>
<path d="M6500 1073 c0 -5 16 -17 35 -26 22 -10 35 -24 35 -36 0 -24 16 -37
58 -46 38 -8 42 6 8 25 -30 15 -40 38 -26 55 13 15 2 21 -64 30 -27 4 -46 3
-46 -2z"/>
<path d="M4818 1473 c7 -3 16 -2 19 1 4 3 -2 6 -13 5 -11 0 -14 -3 -6 -6z"/>
<path d="M4960 1464 c0 -10 16 -32 36 -48 30 -23 41 -27 72 -22 147 25 199 28
282 15 91 -14 107 -14 244 -6 84 6 106 11 94 22 -8 8 -412 45 -575 52 -146 6
-153 5 -153 -13z"/>
<path d="M3071 1454 c0 -11 3 -14 6 -6 3 7 2 16 -1 19 -3 4 -6 -2 -5 -13z"/>
<path d="M6916 1451 c-2 -9 -8 -27 -11 -41 l-7 -25 21 27 c12 15 31 28 42 30
18 3 17 5 -9 14 -27 10 -32 10 -36 -5z"/>
<path d="M1558 1452 c-23 -5 -23 -38 -2 -113 15 -54 18 -57 39 -47 l22 10 -17
74 c-10 41 -19 76 -21 78 -2 1 -12 1 -21 -2z"/>
<path d="M1972 1440 c0 -14 2 -19 5 -12 2 6 2 18 0 25 -3 6 -5 1 -5 -13z"/>
<path d="M6453 1438 c-6 -14 -15 -42 -18 -62 -6 -29 -4 -36 9 -36 19 0 29 33
24 86 -3 38 -3 38 -15 12z"/>
<path d="M6603 1448 c-18 -29 -36 -65 -48 -99 l-13 -35 38 -11 c37 -9 38 -9
44 20 3 16 6 54 6 83 0 52 -10 68 -27 42z"/>
<path d="M881 1435 c0 -20 25 -62 33 -54 2 2 -4 20 -14 39 -14 26 -19 30 -19
15z"/>
<path d="M2318 1438 c-31 -11 -33 -24 -17 -80 7 -28 15 -38 30 -38 26 0 30 14
21 76 -7 50 -7 51 -34 42z"/>
<path d="M5948 1443 c7 -3 16 -2 19 1 4 3 -2 6 -13 5 -11 0 -14 -3 -6 -6z"/>
<path d="M2989 1426 c6 -6 15 -23 20 -37 9 -23 10 -22 10 11 1 29 -3 36 -20
37 -15 1 -18 -1 -10 -11z"/>
<path d="M7012 1394 c22 -50 20 -98 -7 -175 -14 -39 -14 -40 12 -50 14 -5 27
-8 29 -7 1 2 8 42 15 88 6 47 14 99 16 117 5 29 1 33 -36 52 -22 12 -42 21
-45 21 -3 0 4 -21 16 -46z"/>
<path d="M2150 1421 c-12 -5 -11 -10 8 -28 l22 -23 -6 28 c-8 33 -6 31 -24 23z"/>
<path d="M6225 1410 c-4 -12 -5 -24 -2 -27 3 -2 8 5 12 17 4 12 5 24 2 27 -3
2 -8 -5 -12 -17z"/>
<path d="M8212 1410 c0 -14 2 -19 5 -12 2 6 2 18 0 25 -3 6 -5 1 -5 -13z"/>
<path d="M2390 1388 c0 -20 4 -39 9 -43 18 -10 21 13 6 46 l-14 34 -1 -37z"/>
<path d="M2842 1410 c-41 -10 -49 -17 -33 -33 10 -9 14 -8 22 6 6 9 18 17 29
17 20 0 60 -56 60 -84 0 -10 5 -14 10 -11 14 8 13 58 -2 90 -12 26 -27 29 -86
15z"/>
<path d="M7671 1404 c0 -11 3 -14 6 -6 3 7 2 16 -1 19 -3 4 -6 -2 -5 -13z"/>
<path d="M1765 1370 c8 -59 15 -80 24 -80 11 0 -5 85 -19 108 -8 13 -9 6 -5
-28z"/>
<path d="M6777 1382 c-9 -10 -26 -40 -38 -66 -23 -52 -17 -66 28 -66 26 0 43
42 43 106 0 48 -8 54 -33 26z"/>
<path d="M1977 1379 c-9 -5 -22 -7 -29 -3 -8 5 -9 0 -5 -17 4 -13 7 -37 8 -54
2 -26 3 -24 8 10 5 33 10 40 29 39 15 0 22 5 22 18 0 20 -7 22 -33 7z"/>
<path d="M2725 1380 c-16 -4 -66 -18 -110 -30 -44 -12 -96 -26 -115 -31 -174
-40 -230 -62 -230 -87 -1 -16 -1 -16 -14 0 -11 15 -16 16 -57 2 -24 -8 -53
-18 -64 -23 -11 -5 -47 -17 -80 -27 l-60 -19 28 -55 29 -55 -5 40 c-4 43 6 85
23 85 11 0 56 -67 62 -96 3 -10 5 10 4 46 -1 59 1 65 19 65 14 0 28 -15 45
-50 l25 -50 3 48 c3 50 21 69 46 48 11 -9 15 -7 19 9 6 24 20 26 41 4 14 -13
16 -14 16 0 0 29 20 27 52 -4 28 -28 35 -31 62 -23 27 7 31 14 34 46 3 39 27
61 42 37 6 -9 10 -7 15 9 7 23 25 27 42 10 8 -8 13 -5 18 10 10 33 43 26 62
-14 17 -36 35 -37 32 -2 -5 65 1 87 22 87 12 0 28 -8 36 -17 12 -16 13 -15 11
11 -3 33 -11 37 -53 26z"/>
<path d="M973 1317 c-1 -54 0 -58 27 -72 22 -11 45 -13 86 -9 l57 7 -35 18
c-19 10 -57 40 -84 66 l-49 48 -2 -58z"/>
<path d="M6936 1362 c-13 -16 -56 -122 -56 -141 0 -9 61 -31 70 -26 15 9 32
106 26 140 -8 43 -19 50 -40 27z"/>
<path d="M2120 1315 c0 -55 8 -65 38 -47 10 7 8 19 -8 55 -12 26 -23 47 -25
47 -3 0 -5 -25 -5 -55z"/>
<path d="M3051 1354 c0 -11 3 -14 6 -6 3 7 2 16 -1 19 -3 4 -6 -2 -5 -13z"/>
<path d="M7660 1349 c0 -6 -9 -9 -19 -6 -14 3 -18 1 -14 -9 3 -8 11 -14 18
-14 7 0 16 -6 18 -12 3 -7 6 2 6 20 1 17 -1 32 -4 32 -3 0 -5 -5 -5 -11z"/>
<path d="M7472 1315 c0 -16 2 -22 5 -12 2 9 2 23 0 30 -3 6 -5 -1 -5 -18z"/>
<path d="M3260 1320 c-12 -8 -9 -10 12 -10 15 0 30 5 33 10 8 13 -25 13 -45 0z"/>
<path d="M8102 1310 c0 -14 2 -19 5 -12 2 6 2 18 0 25 -3 6 -5 1 -5 -13z"/>
<path d="M3160 1303 c-30 -8 -80 -20 -110 -28 -30 -7 -89 -23 -130 -34 -41
-11 -109 -29 -150 -40 -41 -11 -100 -27 -130 -37 -30 -9 -81 -22 -112 -29
-106 -24 -539 -167 -633 -209 -16 -7 -50 -21 -75 -31 -25 -9 -58 -23 -73 -31
-16 -8 -33 -14 -38 -14 -5 0 -57 -22 -115 -50 -58 -27 -107 -50 -110 -50 -2 0
-63 -29 -135 -64 -113 -56 -189 -109 -189 -133 0 -5 -14 -21 -62 -74 -24 -26
-49 -89 -43 -108 3 -9 27 -28 55 -43 l49 -27 3 41 c4 56 24 67 77 44 49 -23
86 -60 78 -80 -5 -12 -2 -13 17 -6 13 5 57 12 97 15 41 4 107 18 148 31 40 13
87 24 105 24 17 1 42 7 56 15 33 19 69 19 76 0 4 -8 11 -15 18 -15 6 0 16 -10
21 -22 7 -16 20 -24 40 -25 l30 -2 -27 10 c-28 11 -38 42 -18 54 18 11 10 24
-17 27 -36 4 -41 29 -13 68 25 34 21 34 -67 -13 -29 -15 -60 -27 -70 -27 -10
0 -36 -12 -58 -25 -50 -31 -105 -34 -105 -6 0 11 4 23 10 26 5 3 7 19 4 34 -8
40 11 70 59 90 23 10 56 29 72 43 36 30 88 58 109 58 9 0 44 13 78 29 103 46
126 54 160 48 29 -4 39 1 75 39 33 34 58 48 113 65 162 49 387 155 274 129
-61 -15 -84 -12 -84 8 0 13 17 22 65 36 36 10 65 24 65 31 0 20 45 44 81 43
61 -2 164 15 184 29 18 13 13 14 -45 7 -101 -11 -105 -11 -105 10 0 22 49 39
155 55 36 6 106 22 155 36 106 29 115 30 115 10 0 -8 5 -15 10 -15 6 0 10 6
10 14 0 18 54 52 98 61 18 4 30 11 26 16 -6 11 -3 11 -74 -8z"/>
<path d="M6652 1300 c0 -14 2 -19 5 -12 2 6 2 18 0 25 -3 6 -5 1 -5 -13z"/>
<path d="M6842 1305 c1 -11 -2 -30 -6 -42 -4 -13 -4 -28 1 -35 5 -8 10 2 14
27 4 22 3 47 -2 55 -8 12 -9 11 -7 -5z"/>
<path d="M2740 1288 c0 -9 5 -20 11 -23 17 -11 20 0 4 21 -13 17 -14 17 -15 2z"/>
<path d="M2072 1260 c0 -14 2 -19 5 -12 2 6 2 18 0 25 -3 6 -5 1 -5 -13z"/>
<path d="M8088 1255 c-4 -16 -9 -39 -12 -50 -4 -11 1 -5 9 14 9 18 14 41 13
50 -2 9 -7 3 -10 -14z"/>
<path d="M8144 1238 c-11 -47 -11 -48 12 -48 20 0 24 5 24 30 0 17 -4 30 -9
30 -5 0 -11 8 -13 18 -2 9 -8 -4 -14 -30z"/>
<path d="M2002 1240 c0 -14 2 -19 5 -12 2 6 2 18 0 25 -3 6 -5 1 -5 -13z"/>
<path d="M5080 1235 c-14 -8 -41 -15 -60 -15 -19 0 -44 -8 -55 -16 -19 -15
-16 -16 40 -9 72 9 104 9 215 -2 75 -7 85 -11 88 -28 6 -40 195 -90 275 -73
l49 10 -22 23 c-12 12 -34 25 -49 28 -17 4 -31 14 -34 26 -7 28 -24 27 -23 -1
1 -19 -7 -25 -49 -35 -27 -7 -56 -11 -62 -8 -19 7 -16 43 5 48 9 3 -2 5 -25 6
-32 1 -51 9 -76 31 -32 28 -40 30 -113 30 -50 -1 -88 -6 -104 -15z"/>
<path d="M1798 1235 c-8 -8 13 -85 23 -85 9 0 0 71 -10 83 -4 4 -10 5 -13 2z"/>
<path d="M1597 1223 c-14 -4 -17 -11 -13 -26 4 -12 11 -44 16 -72 12 -63 28
-115 29 -93 1 24 19 32 37 17 18 -15 32 -3 16 13 -7 7 -12 23 -13 38 -1 33
-33 123 -45 126 -5 1 -17 -1 -27 -3z"/>
<path d="M7887 1203 c-3 -10 -8 -31 -11 -48 -5 -26 -3 -25 14 10 22 47 23 55
11 55 -5 0 -12 -8 -14 -17z"/>
<path d="M1073 1125 c13 -41 26 -64 33 -61 25 10 54 -53 94 -207 7 -26 16 -49
19 -51 3 -2 38 14 76 37 46 27 64 43 53 45 -28 6 -120 152 -114 182 4 25 -32
119 -47 120 -9 0 2 -45 19 -79 7 -13 11 -29 7 -33 -9 -15 -39 20 -59 67 -10
25 -22 45 -27 45 -4 0 -6 -4 -2 -9 10 -17 -18 -24 -30 -8 -7 10 -19 17 -28 17
-13 0 -12 -9 6 -65z m207 -225 c0 -5 -2 -10 -4 -10 -3 0 -8 5 -11 10 -3 6 -1
10 4 10 6 0 11 -4 11 -10z"/>
<path d="M5968 1183 c7 -3 16 -2 19 1 4 3 -2 6 -13 5 -11 0 -14 -3 -6 -6z"/>
<path d="M2935 1170 c-19 -8 -19 -9 3 -9 12 -1 22 4 22 9 0 6 -1 10 -2 9 -2 0
-12 -4 -23 -9z"/>
<path d="M7196 1164 c-9 -24 -7 -66 3 -60 11 7 20 65 10 71 -4 3 -10 -2 -13
-11z"/>
<path d="M6141 1139 c11 -11 30 -19 42 -17 20 3 19 5 -10 21 -43 23 -57 21
-32 -4z"/>
<path d="M7140 1145 c-8 -9 -8 -15 -2 -15 12 0 26 19 19 26 -2 2 -10 -2 -17
-11z"/>
<path d="M1903 1136 c-45 -16 -47 -22 -25 -44 11 -11 28 -36 37 -56 18 -37 23
-41 41 -28 11 7 -4 143 -16 141 -3 -1 -19 -7 -37 -13z"/>
<path d="M5715 1132 c-10 -27 -5 -40 14 -35 11 3 27 -4 37 -15 11 -11 29 -25
42 -31 20 -11 22 -9 22 13 0 14 -4 28 -10 31 -5 3 -10 16 -10 29 0 21 -5 23
-45 22 -27 -1 -47 -6 -50 -14z"/>
<path d="M5938 1125 c-4 -4 -22 -7 -41 -7 -27 0 -34 -4 -30 -16 3 -15 23 -17
135 -19 l131 -2 -21 22 c-18 17 -37 22 -95 25 -39 2 -75 1 -79 -3z"/>
<path d="M7326 1101 c-20 -37 -20 -41 -2 -41 8 0 16 14 19 33 6 43 2 45 -17 8z"/>
<path d="M1815 1100 c-3 -5 -2 -16 2 -24 6 -12 10 -10 20 10 9 19 8 24 -2 24
-8 0 -17 -4 -20 -10z"/>
<path d="M7273 1095 c-3 -9 -3 -18 -1 -21 3 -3 8 4 11 16 6 23 -1 27 -10 5z"/>
<path d="M7421 1059 c-7 -21 -8 -36 -2 -42 6 -6 12 4 17 27 8 48 0 56 -15 15z"/>
<path d="M1730 1053 c0 -10 5 -25 10 -33 7 -11 10 -7 10 18 0 17 -4 32 -10 32
-5 0 -10 -8 -10 -17z"/>
<path d="M1040 1048 c0 -9 5 -20 11 -23 17 -11 20 0 4 21 -13 17 -14 17 -15 2z"/>
<path d="M2001 1044 c0 -11 3 -14 6 -6 3 7 2 16 -1 19 -3 4 -6 -2 -5 -13z"/>
<path d="M5905 1028 c28 -6 64 -10 80 -9 63 2 94 7 101 14 4 4 -46 6 -112 6
-108 -1 -114 -2 -69 -11z"/>
<path d="M1790 998 c0 -38 16 -60 26 -34 3 8 -1 27 -10 43 l-15 28 -1 -37z"/>
<path d="M1882 1000 c0 -14 2 -19 5 -12 2 6 2 18 0 25 -3 6 -5 1 -5 -13z"/>
<path d="M7491 994 c0 -11 3 -14 6 -6 3 7 2 16 -1 19 -3 4 -6 -2 -5 -13z"/>
<path d="M6038 973 c7 -3 16 -2 19 1 4 3 -2 6 -13 5 -11 0 -14 -3 -6 -6z"/>
<path d="M1710 955 c0 -5 5 -17 10 -25 5 -8 10 -10 10 -5 0 6 -5 17 -10 25 -5
8 -10 11 -10 5z"/>
<path d="M7640 925 c0 -8 4 -15 10 -15 5 0 7 7 4 15 -4 8 -8 15 -10 15 -2 0
-4 -7 -4 -15z"/>
<path d="M7863 904 c-7 -7 -13 -21 -13 -31 0 -10 -5 -25 -10 -33 -7 -12 5 -22
63 -52 40 -20 74 -37 77 -37 3 -1 6 35 6 79 2 86 -10 107 -21 38 -10 -65 -15
-78 -31 -78 -11 0 -14 15 -14 62 0 60 0 61 -19 44 -19 -17 -20 -17 -23 2 -2
17 -5 18 -15 6z"/>
<path d="M7807 890 c-5 -20 -37 -29 -37 -9 0 5 -4 7 -10 4 -17 -11 -11 -21 23
-37 l32 -15 2 38 c1 43 -2 49 -10 19z"/>
<path d="M6107 859 c3 -11 23 -32 45 -45 56 -35 68 -39 68 -20 0 9 -11 21 -24
25 -13 5 -36 21 -51 35 -34 31 -45 33 -38 5z"/>
<path d="M1155 838 c4 -24 2 -38 -5 -38 -5 0 -10 -11 -10 -25 0 -28 7 -30 34
-10 18 14 18 15 -3 62 l-22 48 6 -37z"/>
<path d="M1444 843 c3 -8 6 -19 6 -24 0 -5 7 -9 15 -9 23 0 18 37 -6 43 -15 4
-19 2 -15 -10z"/>
<path d="M8088 844 c-5 -4 -8 -25 -8 -47 0 -34 -2 -39 -20 -34 -31 8 -27 -38
5 -59 14 -9 28 -14 31 -12 3 3 4 40 2 83 -2 42 -6 73 -10 69z"/>
<path d="M1339 811 c-24 -15 -76 -49 -116 -75 -50 -32 -71 -51 -67 -61 4 -8 7
-15 9 -15 1 0 57 27 124 60 116 59 128 69 115 104 -8 22 -14 20 -65 -13z"/>
<path d="M6586 825 c4 -8 11 -15 16 -15 6 0 5 6 -2 15 -7 8 -14 15 -16 15 -2
0 -1 -7 2 -15z"/>
<path d="M8552 791 c-90 -81 -240 -231 -231 -231 5 0 26 -10 47 -23 20 -13 62
-37 92 -54 55 -30 151 -85 180 -103 59 -37 220 -128 220 -124 0 8 -75 182
-104 240 -14 28 -32 54 -40 57 -9 4 -13 13 -10 21 6 15 -28 100 -50 126 -7 8
-16 27 -20 43 -3 15 -14 40 -24 56 l-18 29 -42 -37z"/>
<path d="M528 813 c-20 -5 -23 -18 -8 -28 17 -10 70 5 70 21 0 14 -26 17 -62
7z"/>
<path d="M8420 778 c-25 -11 -98 -41 -162 -67 l-118 -47 59 -34 c33 -18 62
-32 65 -31 8 1 213 201 206 200 -3 0 -25 -10 -50 -21z"/>
<path d="M438 755 c-16 -13 -35 -28 -44 -33 -9 -5 -14 -17 -13 -26 3 -15 11
-12 52 19 26 20 47 42 47 50 0 21 -11 18 -42 -10z"/>
<path d="M6251 740 c14 -14 29 -32 32 -40 3 -10 6 -7 6 8 1 13 -6 25 -16 29
-10 3 -25 11 -34 17 -8 6 -3 0 12 -14z"/>
<path d="M8851 702 c-14 -27 -15 -25 19 -51 l31 -22 -7 28 c-4 15 -13 36 -20
46 -12 18 -13 18 -23 -1z"/>
<path d="M1935 664 c-27 -14 -77 -35 -110 -46 -33 -12 -78 -35 -99 -52 -22
-17 -59 -40 -82 -51 -38 -18 -42 -22 -30 -37 12 -17 16 -17 67 1 30 10 68 26
84 34 29 15 53 26 179 82 33 15 72 27 88 27 20 1 26 4 18 12 -5 5 -10 20 -10
33 0 31 -39 30 -105 -3z"/>
<path d="M6898 679 c22 -23 13 -38 -35 -60 -44 -20 -59 -21 -188 -16 -98 4
-130 3 -107 -4 25 -7 32 -15 32 -34 0 -27 -46 -56 -107 -70 -18 -3 -41 -17
-50 -29 -27 -34 -130 -78 -198 -85 -65 -6 -82 -26 -52 -59 8 -9 18 -44 22 -78
l7 -61 80 4 c44 2 88 8 98 13 27 15 107 30 123 24 8 -3 18 -23 21 -46 5 -31 2
-47 -14 -73 -12 -19 -29 -37 -38 -40 -9 -3 -33 -19 -52 -35 l-35 -29 812 -1
c788 0 812 1 818 19 3 10 -2 35 -11 54 -15 31 -19 34 -31 21 -34 -34 -91 -5
-79 40 4 18 0 31 -15 45 -14 13 -19 26 -15 37 11 30 -31 64 -79 64 -22 0 -67
7 -98 15 -32 8 -77 15 -100 15 -37 -1 -45 -5 -64 -36 -13 -20 -23 -41 -23 -47
0 -7 6 -1 13 13 7 14 21 25 32 25 16 0 22 -10 29 -46 5 -25 6 -62 2 -82 -8
-41 -28 -51 -87 -45 -29 2 -34 7 -37 31 -2 15 1 27 6 27 5 0 18 12 28 28 14
22 14 24 2 14 -28 -22 -84 -5 -108 33 -11 18 -20 39 -20 47 0 8 -13 27 -30 43
-16 16 -30 36 -30 44 0 9 -11 39 -24 66 -21 44 -32 54 -92 85 -77 39 -103 64
-104 98 0 19 -5 22 -43 22 -24 0 -52 7 -63 15 -10 8 -26 15 -34 15 -8 0 -28 7
-45 16 -18 9 -25 10 -17 3z"/>
<path d="M422 648 c-14 -16 -26 -52 -37 -113 -22 -118 -25 -133 -91 -357 -9
-31 -15 -61 -13 -67 4 -10 135 75 157 101 12 16 28 136 16 125 -5 -5 -11 -31
-14 -58 -5 -49 -27 -67 -23 -19 4 54 12 107 23 160 14 70 22 250 12 250 -5 0
-18 -10 -30 -22z"/>
<path d="M848 625 c34 -19 66 -35 71 -35 5 0 14 -7 21 -15 14 -16 46 -20 54
-6 5 8 -177 91 -199 91 -5 0 18 -16 53 -35z"/>
<path d="M8787 623 c-14 -14 -4 -44 77 -231 l83 -193 67 -39 c36 -21 66 -36
66 -34 0 5 -22 62 -54 139 -7 17 -30 83 -51 149 -39 119 -39 119 -99 167 -60
48 -76 55 -89 42z"/>
<path d="M1055 538 c-27 -17 -70 -41 -95 -55 -81 -44 -134 -75 -178 -104 -24
-16 -45 -29 -48 -29 -3 0 -14 -9 -26 -19 -18 -17 -191 -138 -236 -166 -9 -5
-61 -44 -116 -85 l-99 -75 823 -3 c453 -1 825 0 828 2 2 3 -9 27 -24 55 l-28
50 22 30 c12 17 22 34 22 39 0 4 15 33 34 64 33 56 33 56 9 47 -52 -20 -94
-11 -131 27 -24 24 -39 33 -51 28 -30 -13 -115 -34 -137 -34 -12 0 -27 -7 -34
-15 -8 -10 -31 -15 -69 -15 -52 0 -170 -22 -217 -40 -33 -13 -56 7 -52 46 2
26 -3 38 -20 50 -21 14 -22 14 -22 -6 0 -12 -5 -31 -11 -42 -9 -17 -8 -24 5
-33 9 -7 16 -20 16 -29 0 -30 -42 -17 -91 29 -26 25 -55 45 -63 45 -17 0 -66
56 -66 76 0 21 48 124 57 124 5 0 21 16 36 35 34 42 27 43 -38 3z"/>
<path d="M2520 526 c-14 -7 -51 -16 -82 -19 -32 -3 -68 -13 -80 -21 -13 -10
-43 -16 -73 -16 -44 0 -55 -4 -80 -30 -16 -16 -35 -30 -43 -30 -27 0 -82 -52
-82 -77 0 -16 -16 -39 -47 -68 -27 -24 -56 -61 -66 -82 -10 -21 -25 -50 -32
-65 -11 -22 -11 -27 1 -32 8 -3 14 -13 14 -22 0 -9 11 -27 26 -40 l25 -24 455
0 c310 0 454 3 454 10 0 13 77 49 103 50 9 0 36 14 59 30 22 17 47 30 55 30
19 0 107 45 120 62 6 7 21 38 33 68 22 52 74 120 92 120 13 0 109 72 104 78
-5 5 -154 10 -416 15 l-95 2 -5 29 c-5 28 -5 28 -80 28 -41 0 -104 -3 -140 -7
-46 -5 -82 -2 -125 9 -70 19 -63 19 -95 2z"/>
<path d="M1999 328 c-12 -23 -12 -23 10 -4 23 21 26 26 11 26 -5 0 -15 -10
-21 -22z"/>
<path d="M9087 323 c-12 -15 -16 -31 -11 -41 4 -9 21 -58 38 -109 26 -77 37
-95 66 -115 63 -43 62 -43 45 -1 -10 21 -21 49 -25 63 -4 14 -28 71 -52 126
l-43 101 -18 -24z"/>
<path d="M8790 208 c0 -7 14 -21 30 -30 18 -10 30 -25 30 -38 0 -16 6 -20 35
-20 28 0 36 -4 40 -23 4 -13 5 -27 4 -33 -1 -5 -1 -21 0 -36 l1 -28 105 0 c79
0 103 3 99 13 -3 9 -300 191 -336 205 -4 2 -8 -2 -8 -10z"/>
<path d="M6440 163 c-25 -6 -60 -12 -77 -12 -18 -1 -33 -5 -33 -11 0 -5 -8
-10 -18 -10 -15 0 -18 -6 -14 -30 3 -21 0 -32 -12 -36 -10 -4 -16 -18 -16 -35
0 -26 3 -29 34 -29 24 0 38 6 49 24 9 13 41 40 72 61 57 37 70 53 63 77 -2 10
-12 11 -48 1z"/>
<path d="M6180 149 c-23 -13 -55 -19 -97 -19 l-63 0 10 -26 c6 -14 10 -43 10
-65 l0 -39 81 0 81 0 -7 39 c-6 34 -3 41 21 60 18 14 24 25 17 29 -6 4 -12 14
-14 23 -4 15 -7 15 -39 -2z"/>
<path d="M8591 113 c8 -9 22 -25 32 -35 9 -10 17 -31 17 -48 0 -27 3 -30 30
-30 32 0 42 23 15 34 -8 3 -15 14 -15 25 0 13 -16 28 -46 45 -32 18 -42 21
-33 9z"/>
<path d="M8805 92 c-12 -8 -15 -92 -4 -92 8 0 13 17 22 73 4 28 0 32 -18 19z"/>
<path d="M8875 68 c-12 -40 -11 -68 1 -68 10 0 13 12 12 40 -1 41 -6 50 -13
28z"/>
<path d="M8326 16 c3 -9 13 -16 22 -16 8 0 13 1 11 3 -2 1 -12 9 -22 16 -15
12 -17 12 -11 -3z"/>
</g>
</svg>
