<svg id="Layer_1" data-name="Layer 1" xmlns="http://www.w3.org/2000/svg" viewBox="0 0 24 24"><defs><style>.cls-1{fill:none;stroke:#3d3d3d;stroke-miterlimit:10;}</style></defs><title>Artboard 10</title><path id="_Path_" data-name="&lt;Path&gt;" class="cls-1" d="M22.59,6.58a.1.1,0,0,0-.12,0,8,8,0,0,1-1.91.58A4.27,4.27,0,0,0,22.05,5a.11.11,0,0,0,0-.11.13.13,0,0,0-.12,0,8.35,8.35,0,0,1-2.55,1A4.25,4.25,0,0,0,12,8.85a4.58,4.58,0,0,0,.08.83A11.7,11.7,0,0,1,3.78,5.39s-.06,0-.09,0a.1.1,0,0,0-.08,0A4.18,4.18,0,0,0,3,7.54a4.28,4.28,0,0,0,1.6,3.33,4.09,4.09,0,0,1-1.48-.48.09.09,0,0,0-.1,0,.11.11,0,0,0,0,.09v0a4.26,4.26,0,0,0,3,4.06,4.24,4.24,0,0,1-1.42,0,.1.1,0,0,0-.09,0,.12.12,0,0,0,0,.1,4.26,4.26,0,0,0,3.69,2.94,8.17,8.17,0,0,1-4.87,1.58,7.94,7.94,0,0,1-1,0,.1.1,0,0,0-.11.06.1.1,0,0,0,0,.12,11.88,11.88,0,0,0,6.42,1.88A11.79,11.79,0,0,0,20.56,9.33c0-.17,0-.33,0-.49A8.69,8.69,0,0,0,22.6,6.7.1.1,0,0,0,22.59,6.58Z"/></svg>